<?xml version="1.0" encoding="UTF-8"?>
<!DOCTYPE svg PUBLIC "-//W3C//DTD SVG 1.1//EN" "http://www.w3.org/Graphics/SVG/1.1/DTD/svg11.dtd">
<svg xmlns="http://www.w3.org/2000/svg" version="1.1" width="1200px" height="630px" style="shape-rendering:geometricPrecision; text-rendering:geometricPrecision; image-rendering:optimizeQuality; fill-rule:evenodd; clip-rule:evenodd" xmlns:xlink="http://www.w3.org/1999/xlink">
<g><path style="opacity:0.97" fill="#364e7e" d="M 307.5,270.5 C 301.824,270.334 296.157,270.501 290.5,271C 284.148,272.834 277.815,274.334 271.5,275.5C 241.807,265.504 213.474,268.504 186.5,284.5C 175.09,283.023 163.756,283.69 152.5,286.5C 180.694,258.596 214.694,246.762 254.5,251C 273.954,253.097 291.62,259.597 307.5,270.5 Z"/></g>
<g><path style="opacity:0.957" fill="#f8f8fa" d="M 307.5,270.5 C 319.572,271.842 331.572,273.676 343.5,276C 344.444,278.719 344.777,281.552 344.5,284.5C 333.271,283.442 322.271,281.276 311.5,278C 304.5,277.333 297.5,277.333 290.5,278C 273.971,283.228 258.305,290.228 243.5,299C 235.464,299.665 227.464,299.331 219.5,298C 209.695,295.909 200.028,293.575 190.5,291C 176.918,289.592 163.584,290.592 150.5,294C 137.45,300.225 124.116,305.725 110.5,310.5C 115.63,304.869 120.964,299.369 126.5,294C 134.918,290.623 143.585,288.123 152.5,286.5C 163.756,283.69 175.09,283.023 186.5,284.5C 188.17,284.751 189.67,285.418 191,286.5C 217.788,282.697 244.621,279.03 271.5,275.5C 277.815,274.334 284.148,272.834 290.5,271C 296.157,270.501 301.824,270.334 307.5,270.5 Z"/></g>
<g><path style="opacity:0.991" fill="#394f7f" d="M 344.5,284.5 C 357.392,286.226 370.058,288.893 382.5,292.5C 369.827,293.501 357.16,294.501 344.5,295.5C 330.989,296.287 317.489,296.287 304,295.5C 298.48,295.78 292.98,296.28 287.5,297C 277.819,301.783 267.819,305.783 257.5,309C 242.888,311.727 228.388,314.894 214,318.5C 213.5,318.333 213,318.167 212.5,318C 217.067,315.618 217.4,312.951 213.5,310C 195.485,302.63 176.818,300.63 157.5,304C 145.911,306.982 134.244,309.482 122.5,311.5C 116.884,311.656 111.551,312.656 106.5,314.5C 106.167,314.5 105.833,314.5 105.5,314.5C 104.833,314.5 104.5,314.833 104.5,315.5C 101.159,316.005 97.8255,316.172 94.5,316C 99.573,313.475 104.906,311.642 110.5,310.5C 124.116,305.725 137.45,300.225 150.5,294C 163.584,290.592 176.918,289.592 190.5,291C 200.028,293.575 209.695,295.909 219.5,298C 227.464,299.331 235.464,299.665 243.5,299C 258.305,290.228 273.971,283.228 290.5,278C 297.5,277.333 304.5,277.333 311.5,278C 322.271,281.276 333.271,283.442 344.5,284.5 Z"/></g>
<g><path style="opacity:0.979" fill="#fbfbfc" d="M 344.5,295.5 C 344.357,298.385 343.357,300.718 341.5,302.5C 333.383,301.614 325.383,301.947 317.5,303.5C 314.856,305.516 314.023,308.183 315,311.5C 319.776,316.122 324.942,320.122 330.5,323.5C 337.797,325.473 345.13,327.473 352.5,329.5C 353.584,329.315 354.584,328.982 355.5,328.5C 360.683,329.088 365.683,330.421 370.5,332.5C 371.466,334.396 371.799,336.396 371.5,338.5C 354.671,335.967 338.005,332.467 321.5,328C 307.372,326.206 293.705,327.872 280.5,333C 271.438,336.869 262.438,340.703 253.5,344.5C 220.63,334.063 187.963,323.063 155.5,311.5C 146.512,313.664 137.512,315.664 128.5,317.5C 125.662,318.17 123.162,319.504 121,321.5C 119.294,325.079 117.461,328.579 115.5,332C 117.03,334.352 118.697,336.519 120.5,338.5C 127.323,339.138 134.323,339.138 141.5,338.5C 144.833,338.5 148.167,338.5 151.5,338.5C 151.5,340.5 151.5,342.5 151.5,344.5C 143.01,345.33 134.343,345.83 125.5,346C 117.859,346.91 110.526,348.744 103.5,351.5C 103.188,339.42 103.521,327.42 104.5,315.5C 105.167,315.5 105.5,315.167 105.5,314.5C 105.833,314.5 106.167,314.5 106.5,314.5C 112.097,314.23 117.43,313.23 122.5,311.5C 134.244,309.482 145.911,306.982 157.5,304C 176.818,300.63 195.485,302.63 213.5,310C 217.4,312.951 217.067,315.618 212.5,318C 213,318.167 213.5,318.333 214,318.5C 228.388,314.894 242.888,311.727 257.5,309C 267.819,305.783 277.819,301.783 287.5,297C 292.98,296.28 298.48,295.78 304,295.5C 317.489,296.287 330.989,296.287 344.5,295.5 Z M 128.5,317.5 C 125.575,324.359 122.908,331.359 120.5,338.5C 118.697,336.519 117.03,334.352 115.5,332C 117.461,328.579 119.294,325.079 121,321.5C 123.162,319.504 125.662,318.17 128.5,317.5 Z"/></g>
<g><path style="opacity:0.971" fill="#39507f" d="M 341.5,302.5 C 347.213,310.593 351.88,319.259 355.5,328.5C 354.584,328.982 353.584,329.315 352.5,329.5C 345.13,327.473 337.797,325.473 330.5,323.5C 329.955,321.407 329.122,319.407 328,317.5C 324.644,312.655 321.144,307.988 317.5,303.5C 325.383,301.947 333.383,301.614 341.5,302.5 Z"/></g>
<g><path style="opacity:1" fill="#b1b8ca" d="M 122.5,311.5 C 117.43,313.23 112.097,314.23 106.5,314.5C 111.551,312.656 116.884,311.656 122.5,311.5 Z"/></g>
<g><path style="opacity:0.969" fill="#384e7e" d="M 155.5,311.5 C 149.954,320.046 145.287,329.046 141.5,338.5C 134.323,339.138 127.323,339.138 120.5,338.5C 122.908,331.359 125.575,324.359 128.5,317.5C 137.512,315.664 146.512,313.664 155.5,311.5 Z"/></g>
<g><path style="opacity:0.975" fill="#384e7e" d="M 371.5,338.5 C 386.953,341.091 402.286,344.257 417.5,348C 402.316,349.669 386.982,350.836 371.5,351.5C 358.083,351.157 344.75,351.824 331.5,353.5C 317.809,352.029 304.142,352.196 290.5,354C 288.881,354.236 287.881,355.069 287.5,356.5C 275.298,362.403 262.631,367.236 249.5,371C 230.208,375.155 210.875,379.322 191.5,383.5C 190.5,383.333 189.5,383.167 188.5,383C 190.609,381.859 192.442,380.359 194,378.5C 194.743,376.559 194.576,374.726 193.5,373C 180.236,366.621 166.236,363.121 151.5,362.5C 140.643,361.279 129.643,361.446 118.5,363C 113.508,363.832 108.841,365.332 104.5,367.5C 81.2593,372.322 57.9259,376.655 34.5,380.5C 33.6143,379.675 33.281,378.675 33.5,377.5C 38.6009,376.857 43.6009,375.691 48.5,374C 66.977,366.642 85.3103,359.142 103.5,351.5C 110.526,348.744 117.859,346.91 125.5,346C 134.343,345.83 143.01,345.33 151.5,344.5C 170.475,348.33 189.475,352.163 208.5,356C 216.5,356.667 224.5,356.667 232.5,356C 239.851,352.661 246.851,348.827 253.5,344.5C 262.438,340.703 271.438,336.869 280.5,333C 293.705,327.872 307.372,326.206 321.5,328C 338.005,332.467 354.671,335.967 371.5,338.5 Z"/></g>
<g><path style="opacity:0.962" fill="#364d7e" d="M 557.5,337.5 C 565.584,337.132 573.251,338.632 580.5,342C 584.279,345.724 586.279,350.224 586.5,355.5C 580.519,356.499 574.519,356.999 568.5,357C 563.622,350.659 557.789,349.825 551,354.5C 544.84,363.094 544.007,372.094 548.5,381.5C 549.025,382.192 549.692,382.692 550.5,383C 554.833,383.667 559.167,383.667 563.5,383C 566.534,381.809 568.201,379.642 568.5,376.5C 564.297,376.924 560.297,376.424 556.5,375C 557.199,371.2 557.865,367.367 558.5,363.5C 567.81,362.502 577.143,362.168 586.5,362.5C 584.987,373.807 583.654,385.14 582.5,396.5C 569.833,397.067 557.166,397.234 544.5,397C 536.523,395.025 531.023,390.192 528,382.5C 524.067,365.668 528.901,352.168 542.5,342C 547.324,339.46 552.324,337.96 557.5,337.5 Z"/></g>
<g><path style="opacity:0.955" fill="#364d7e" d="M 1140.5,337.5 C 1147.99,337.137 1154.99,338.637 1161.5,342C 1165.99,345.781 1167.66,350.614 1166.5,356.5C 1160.5,356.5 1154.5,356.5 1148.5,356.5C 1149.39,351.718 1147.39,349.384 1142.5,349.5C 1140.49,349.84 1138.49,350.173 1136.5,350.5C 1136.26,352.467 1136.59,354.301 1137.5,356C 1143.45,357.871 1149.45,359.538 1155.5,361C 1167.04,366.773 1169.54,375.273 1163,386.5C 1153.45,397.072 1141.61,400.572 1127.5,397C 1117.14,394.129 1112.47,387.296 1113.5,376.5C 1119.51,376.299 1125.51,375.966 1131.5,375.5C 1130.94,381.769 1133.77,385.102 1140,385.5C 1147.55,384.25 1149.05,380.75 1144.5,375C 1136.56,373.909 1129.23,371.243 1122.5,367C 1116.22,357.527 1117.55,349.193 1126.5,342C 1130.97,339.565 1135.64,338.065 1140.5,337.5 Z"/></g>
<g><path style="opacity:0.972" fill="#364e7e" d="M 437.5,338.5 C 444.5,338.5 451.5,338.5 458.5,338.5C 462.357,357.632 466.857,376.632 472,395.5C 475.009,376.576 477.509,357.576 479.5,338.5C 495.5,338.5 511.5,338.5 527.5,338.5C 527.528,343.138 526.861,347.638 525.5,352C 515.922,352.818 506.422,352.651 497,351.5C 496.433,354.168 495.933,356.834 495.5,359.5C 504.5,359.5 513.5,359.5 522.5,359.5C 522.261,363.842 521.927,368.176 521.5,372.5C 512.5,372.5 503.5,372.5 494.5,372.5C 493.793,375.786 493.46,379.119 493.5,382.5C 503.5,382.5 513.5,382.5 523.5,382.5C 522.446,387.107 521.779,391.773 521.5,396.5C 498.5,396.5 475.5,396.5 452.5,396.5C 452.296,393.482 451.963,390.482 451.5,387.5C 444.833,387.5 438.167,387.5 431.5,387.5C 431.076,390.354 430.076,393.021 428.5,395.5C 422.167,396.833 415.833,396.833 409.5,395.5C 419.085,376.663 428.418,357.663 437.5,338.5 Z M 444.5,357.5 C 446.459,362.686 448.125,368.186 449.5,374C 445.5,374.667 441.5,374.667 437.5,374C 440.25,368.667 442.584,363.167 444.5,357.5 Z"/></g>
<g><path style="opacity:0.961" fill="#364e7e" d="M 594.5,338.5 C 610.5,338.5 626.5,338.5 642.5,338.5C 642.086,343.074 641.419,347.574 640.5,352C 630.922,352.818 621.422,352.651 612,351.5C 611.774,354.095 611.274,356.595 610.5,359C 619.5,359.333 628.5,359.667 637.5,360C 637.833,360.333 638.167,360.667 638.5,361C 637.632,364.767 636.965,368.601 636.5,372.5C 627.167,372.5 617.833,372.5 608.5,372.5C 608.784,375.777 608.451,378.943 607.5,382C 617.5,382.333 627.5,382.667 637.5,383C 637.964,385.405 638.131,387.905 638,390.5C 645.949,373.326 654.282,356.326 663,339.5C 669.744,338.521 676.578,338.188 683.5,338.5C 688.373,357.786 693.04,377.12 697.5,396.5C 691.158,396.666 684.825,396.5 678.5,396C 677.833,393.333 677.167,390.667 676.5,388C 670.167,387.333 663.833,387.333 657.5,388C 656.438,390.791 655.105,393.457 653.5,396C 631.503,396.5 609.503,396.667 587.5,396.5C 589.716,377.112 592.049,357.778 594.5,338.5 Z M 670.5,355.5 C 671.605,361.423 672.938,367.423 674.5,373.5C 670.833,374.833 667.167,374.833 663.5,373.5C 666.408,367.691 668.741,361.691 670.5,355.5 Z"/></g>
<g><path style="opacity:0.963" fill="#364d7e" d="M 705.5,338.5 C 711.176,338.334 716.843,338.501 722.5,339C 728.365,348.56 733.865,358.393 739,368.5C 739.992,358.743 741.492,349.077 743.5,339.5C 749.128,338.505 754.794,338.171 760.5,338.5C 758.659,357.897 756.325,377.23 753.5,396.5C 747.463,396.829 741.463,396.496 735.5,395.5C 730.567,386.059 725.4,376.726 720,367.5C 718.179,377.09 717.013,386.757 716.5,396.5C 710.5,396.5 704.5,396.5 698.5,396.5C 700.442,377.076 702.775,357.743 705.5,338.5 Z"/></g>
<g><path style="opacity:0.958" fill="#364d7e" d="M 804.5,338.5 C 811.422,338.188 818.256,338.521 825,339.5C 829.992,358.469 834.826,377.469 839.5,396.5C 832.833,396.5 826.167,396.5 819.5,396.5C 819.037,393.518 818.704,390.518 818.5,387.5C 812.158,387.334 805.825,387.5 799.5,388C 798.167,390.667 796.833,393.333 795.5,396C 789.141,396.831 782.807,396.664 776.5,395.5C 786.587,376.928 795.92,357.928 804.5,338.5 Z M 811.5,358.5 C 814.348,363.222 815.681,368.556 815.5,374.5C 811.818,374.665 808.152,374.499 804.5,374C 807.05,368.944 809.384,363.777 811.5,358.5 Z"/></g>
<g><path style="opacity:0.964" fill="#364d7e" d="M 847.5,338.5 C 853.833,338.5 860.167,338.5 866.5,338.5C 863.875,357.795 861.541,377.128 859.5,396.5C 853.167,396.5 846.833,396.5 840.5,396.5C 842.616,377.14 844.949,357.807 847.5,338.5 Z"/></g>
<g><path style="opacity:0.964" fill="#364d7e" d="M 873.5,338.5 C 886.171,338.333 898.838,338.5 911.5,339C 922.722,341.606 926.555,348.439 923,359.5C 920.359,364.641 916.526,368.641 911.5,371.5C 916.365,378.543 920.199,386.209 923,394.5C 924.528,390.361 925.528,386.028 926,381.5C 927.748,367.187 929.248,352.854 930.5,338.5C 936.833,338.5 943.167,338.5 949.5,338.5C 948.163,352.875 946.496,367.208 944.5,381.5C 953.5,381.5 962.5,381.5 971.5,381.5C 971.387,386.518 971.053,391.518 970.5,396.5C 947.824,396.833 925.157,396.5 902.5,395.5C 899.718,389.605 897.218,383.605 895,377.5C 893.277,374.756 890.777,373.422 887.5,373.5C 887.419,381.228 886.752,388.895 885.5,396.5C 879.167,396.5 872.833,396.5 866.5,396.5C 868.834,377.165 871.167,357.832 873.5,338.5 Z M 890.5,351.5 C 894.514,351.334 898.514,351.501 902.5,352C 906.291,355.681 905.625,358.681 900.5,361C 896.833,361.667 893.167,361.667 889.5,361C 890.451,357.943 890.784,354.777 890.5,351.5 Z"/></g>
<g><path style="opacity:0.966" fill="#364d7e" d="M 980.5,338.5 C 986.5,338.5 992.5,338.5 998.5,338.5C 996.68,357.852 994.68,377.185 992.5,396.5C 986.167,396.5 979.833,396.5 973.5,396.5C 975.669,377.145 978.003,357.811 980.5,338.5 Z"/></g>
<g><path style="opacity:0.966" fill="#364d7e" d="M 1006.5,338.5 C 1012.18,338.334 1017.84,338.501 1023.5,339C 1029,348.815 1034.5,358.649 1040,368.5C 1041.44,358.847 1042.78,349.18 1044,339.5C 1049.74,338.525 1055.57,338.192 1061.5,338.5C 1059.72,357.776 1057.39,376.943 1054.5,396C 1048.83,396.667 1043.17,396.667 1037.5,396C 1031.87,386.582 1026.37,377.082 1021,367.5C 1019.96,376.92 1018.46,386.253 1016.5,395.5C 1010.87,396.495 1005.21,396.829 999.5,396.5C 1001.46,377.12 1003.79,357.787 1006.5,338.5 Z"/></g>
<g><path style="opacity:0.961" fill="#364e7e" d="M 1068.5,338.5 C 1084.51,338.167 1100.51,338.501 1116.5,339.5C 1115.89,343.489 1115.23,347.489 1114.5,351.5C 1104.97,352.823 1095.47,352.823 1086,351.5C 1085.43,354.168 1084.93,356.834 1084.5,359.5C 1093.5,359.5 1102.5,359.5 1111.5,359.5C 1111.25,363.767 1110.58,367.934 1109.5,372C 1100.51,372.5 1091.51,372.666 1082.5,372.5C 1082.74,375.579 1082.41,378.579 1081.5,381.5C 1091.48,382.499 1101.48,382.832 1111.5,382.5C 1111,387.152 1110.67,391.819 1110.5,396.5C 1094.17,396.5 1077.83,396.5 1061.5,396.5C 1063.29,377.061 1065.62,357.727 1068.5,338.5 Z"/></g>
<g><path style="opacity:0.932" fill="#f6f7f9" d="M 371.5,351.5 C 371.664,354.187 371.497,356.854 371,359.5C 368.712,359.737 366.212,359.737 363.5,359.5C 357.347,358.347 351.014,358.18 344.5,359C 343.944,359.383 343.611,359.883 343.5,360.5C 329.886,363.108 316.22,363.608 302.5,362C 297.538,360.011 292.538,358.178 287.5,356.5C 287.881,355.069 288.881,354.236 290.5,354C 304.142,352.196 317.809,352.029 331.5,353.5C 344.75,351.824 358.083,351.157 371.5,351.5 Z"/></g>
<g><path style="opacity:0.971" fill="#364d7e" d="M 363.5,359.5 C 366.918,421.537 340.585,465.37 284.5,491C 229.908,508.221 183.075,496.054 144,454.5C 124.711,430.728 115.211,403.395 115.5,372.5C 115.577,371.25 116.244,370.417 117.5,370C 123.135,369.096 128.802,368.596 134.5,368.5C 134.675,415.042 155.341,448.875 196.5,470C 241.99,487.449 282.157,479.283 317,445.5C 337.886,421.029 346.719,392.696 343.5,360.5C 343.611,359.883 343.944,359.383 344.5,359C 351.014,358.18 357.347,358.347 363.5,359.5 Z"/></g>
<g><path style="opacity:0.938" fill="#f7f8fa" d="M 151.5,362.5 C 151.5,365.5 151.5,368.5 151.5,371.5C 145.871,370.291 140.205,369.291 134.5,368.5C 128.802,368.596 123.135,369.096 117.5,370C 116.244,370.417 115.577,371.25 115.5,372.5C 111.916,374.739 108.583,377.406 105.5,380.5C 104.508,376.217 104.174,371.884 104.5,367.5C 108.841,365.332 113.508,363.832 118.5,363C 129.643,361.446 140.643,361.279 151.5,362.5 Z"/></g>
</svg>
