<?xml version="1.0" encoding="UTF-8"?>
<!DOCTYPE svg PUBLIC "-//W3C//DTD SVG 1.1//EN" "http://www.w3.org/Graphics/SVG/1.1/DTD/svg11.dtd">
<svg xmlns="http://www.w3.org/2000/svg" version="1.1" width="1095px" height="689px" style="shape-rendering:geometricPrecision; text-rendering:geometricPrecision; image-rendering:optimizeQuality; fill-rule:evenodd; clip-rule:evenodd" xmlns:xlink="http://www.w3.org/1999/xlink">
<g><path style="opacity:0.998" fill="#83bb01" d="M 997.5,269.5 C 990.809,278.701 983.142,287.201 974.5,295C 960.939,305.085 947.606,315.252 934.5,325.5C 924.434,315.17 919.101,302.67 918.5,288C 919.332,268.964 928.332,255.63 945.5,248C 954.981,245.489 960.815,248.989 963,258.5C 972.198,247.756 983.198,245.09 996,250.5C 1000,256.642 1000.5,262.976 997.5,269.5 Z"/></g>
<g><path style="opacity:1" fill="#4fa338" d="M 997.5,269.5 C 996.351,275.465 993.851,280.798 990,285.5C 974.779,303.363 956.279,316.696 934.5,325.5C 947.606,315.252 960.939,305.085 974.5,295C 983.142,287.201 990.809,278.701 997.5,269.5 Z"/></g>
<g><path style="opacity:0.946" fill="#016170" d="M 431.5,278.5 C 438.437,278.119 442.437,281.285 443.5,288C 441.689,296.5 436.689,299.167 428.5,296C 424.87,292.95 423.703,289.117 425,284.5C 426.436,281.558 428.603,279.558 431.5,278.5 Z"/></g>
<g><path style="opacity:0.97" fill="#006170" d="M 110.5,283.5 C 116.093,283.193 121.593,283.527 127,284.5C 142.07,318.635 156.57,352.968 170.5,387.5C 164.463,387.829 158.463,387.496 152.5,386.5C 148.766,378.29 145.432,369.957 142.5,361.5C 126.5,361.5 110.5,361.5 94.5,361.5C 91.5678,369.957 88.2345,378.29 84.5,386.5C 78.5,387.833 72.5,387.833 66.5,386.5C 80.9061,352.025 95.5728,317.692 110.5,283.5 Z M 117.5,307.5 C 118.75,307.577 119.583,308.244 120,309.5C 125.038,321.74 130.204,333.906 135.5,346C 124.152,346.832 112.819,346.666 101.5,345.5C 107.397,333.042 112.731,320.376 117.5,307.5 Z"/></g>
<g><path style="opacity:0.961" fill="#006170" d="M 346.5,283.5 C 352.425,283.192 358.259,283.525 364,284.5C 364.5,313.831 364.667,343.165 364.5,372.5C 381.833,372.5 399.167,372.5 416.5,372.5C 416.5,377.5 416.5,382.5 416.5,387.5C 393.167,387.5 369.833,387.5 346.5,387.5C 346.5,352.833 346.5,318.167 346.5,283.5 Z"/></g>
<g><path style="opacity:0.967" fill="#006170" d="M 608.5,295.5 C 614.176,295.334 619.843,295.501 625.5,296C 622.084,302.167 618.418,308.167 614.5,314C 624.34,324.189 628.173,336.356 626,350.5C 624.162,360.489 618.995,368.156 610.5,373.5C 626.855,383.754 630.355,397.421 621,414.5C 611.681,424.833 600.015,429.499 586,428.5C 567.703,429.528 554.703,421.861 547,405.5C 546.174,402.207 545.674,398.874 545.5,395.5C 551.167,395.5 556.833,395.5 562.5,395.5C 563.441,404.611 568.441,410.111 577.5,412C 586.51,414.094 595.176,413.094 603.5,409C 611.684,401.4 611.35,394.4 602.5,388C 586.355,383.954 571.021,377.954 556.5,370C 544.459,357.796 541.626,343.63 548,327.5C 557.54,311.478 571.706,303.978 590.5,305C 594.146,305.356 597.646,306.189 601,307.5C 603.761,303.64 606.261,299.64 608.5,295.5 Z M 581.5,320.5 C 606.043,321.866 614.543,334.2 607,357.5C 604.117,362.05 600.284,365.55 595.5,368C 586.896,366.914 578.563,364.58 570.5,361C 562.764,355.47 559.93,347.97 562,338.5C 564.867,328.463 571.367,322.463 581.5,320.5 Z"/></g>
<g><path style="opacity:0.998" fill="#83bb02" d="M 922.5,332.5 C 913.575,340.581 903.908,347.748 893.5,354C 883.045,360.43 871.712,363.93 859.5,364.5C 853.796,360.271 851.962,354.604 854,347.5C 856.598,340.294 861.098,334.627 867.5,330.5C 862.471,323.747 862.304,316.747 867,309.5C 877.326,295.578 890.159,292.744 905.5,301C 914.441,309.715 920.108,320.215 922.5,332.5 Z"/></g>
<g><path style="opacity:0.966" fill="#006170" d="M 755.5,304.5 C 766.814,304.479 777.814,306.312 788.5,310C 790.813,310.641 792.48,311.974 793.5,314C 792.851,318.438 791.518,322.604 789.5,326.5C 775.308,319.892 760.641,318.392 745.5,322C 739.75,327.508 740.417,332.175 747.5,336C 759.955,338.491 772.288,341.491 784.5,345C 796.528,351.066 800.361,360.566 796,373.5C 793.108,379.392 788.608,383.559 782.5,386C 762.901,391.6 743.901,390.1 725.5,381.5C 725.171,376.44 726.004,371.44 728,366.5C 743.178,374.127 759.011,375.96 775.5,372C 781.209,368.455 781.875,364.121 777.5,359C 774.911,357.803 772.244,356.803 769.5,356C 759.365,354.644 749.365,352.644 739.5,350C 725.805,343.773 721.638,333.606 727,319.5C 730.248,314.256 734.748,310.422 740.5,308C 745.545,306.425 750.545,305.259 755.5,304.5 Z"/></g>
<g><path style="opacity:0.963" fill="#006170" d="M 208.5,305.5 C 228.024,304.559 240.857,313.225 247,331.5C 248.311,339.105 248.811,346.772 248.5,354.5C 228.833,354.5 209.167,354.5 189.5,354.5C 189.291,363.8 193.624,369.967 202.5,373C 216.018,375.238 229.352,374.405 242.5,370.5C 243.026,374.936 244.026,379.269 245.5,383.5C 228.491,390.166 211.158,391 193.5,386C 180.645,380.809 173.479,371.309 172,357.5C 169.708,343.582 172.041,330.582 179,318.5C 186.984,309.79 196.818,305.456 208.5,305.5 Z M 205.5,320.5 C 220.423,318.603 229.089,324.936 231.5,339.5C 217.5,339.5 203.5,339.5 189.5,339.5C 189.806,328.865 195.139,322.532 205.5,320.5 Z"/></g>
<g><path style="opacity:0.955" fill="#006170" d="M 296.5,305.5 C 303.175,306.107 309.842,306.773 316.5,307.5C 315.526,312.534 314.359,317.534 313,322.5C 303.339,319.499 293.839,319.999 284.5,324C 282.622,325.543 281.122,327.376 280,329.5C 278.537,348.765 278.037,368.099 278.5,387.5C 272.833,387.5 267.167,387.5 261.5,387.5C 261.333,369.164 261.5,350.83 262,332.5C 263.255,323.255 267.755,316.088 275.5,311C 282.346,308.04 289.346,306.207 296.5,305.5 Z"/></g>
<g><path style="opacity:0.964" fill="#006170" d="M 491.5,305.5 C 502.254,305.188 512.254,307.688 521.5,313C 527.197,317.892 530.697,324.059 532,331.5C 532.5,350.164 532.667,368.83 532.5,387.5C 526.833,387.5 521.167,387.5 515.5,387.5C 515.963,368.099 515.463,348.765 514,329.5C 512.108,325.942 509.275,323.442 505.5,322C 495.92,319.96 486.42,320.127 477,322.5C 476.5,344.164 476.333,365.831 476.5,387.5C 470.833,387.5 465.167,387.5 459.5,387.5C 459.333,361.831 459.5,336.165 460,310.5C 470.424,307.655 480.924,305.989 491.5,305.5 Z"/></g>
<g><path style="opacity:0.942" fill="#006171" d="M 425.5,307.5 C 431.167,307.5 436.833,307.5 442.5,307.5C 442.5,334.167 442.5,360.833 442.5,387.5C 436.833,387.5 431.167,387.5 425.5,387.5C 425.5,360.833 425.5,334.167 425.5,307.5 Z"/></g>
<g><path style="opacity:0.97" fill="#016170" d="M 637.5,307.5 C 643.167,307.5 648.833,307.5 654.5,307.5C 654.333,325.836 654.5,344.17 655,362.5C 657.052,369.219 661.552,373.052 668.5,374C 676.852,374.622 685.186,374.455 693.5,373.5C 693.5,351.5 693.5,329.5 693.5,307.5C 699.5,307.5 705.5,307.5 711.5,307.5C 711.667,333.169 711.5,358.835 711,384.5C 695.099,389.036 678.933,390.203 662.5,388C 648.546,385.046 640.379,376.546 638,362.5C 637.5,344.17 637.333,325.836 637.5,307.5 Z"/></g>
<g><path style="opacity:0.998" fill="#83bb02" d="M 1021.5,350.5 C 1013.55,358.317 1004.22,362.484 993.5,363C 994.705,364.376 996.038,365.542 997.5,366.5C 1002.38,387.819 993.88,400.152 972,403.5C 953.897,401.067 942.231,391.067 937,373.5C 935.46,365.702 933.96,358.035 932.5,350.5C 934.785,345.835 936.118,340.835 936.5,335.5C 956.698,320.714 979.364,313.88 1004.5,315C 1014.52,316.409 1021.69,321.576 1026,330.5C 1026.67,334.5 1026.67,338.5 1026,342.5C 1025.25,345.684 1023.75,348.351 1021.5,350.5 Z"/></g>
<g><path style="opacity:1" fill="#4fa338" d="M 922.5,332.5 C 910.864,349.3 895.197,360.467 875.5,366C 871.167,366.667 866.833,366.667 862.5,366C 861.263,365.768 860.263,365.268 859.5,364.5C 871.712,363.93 883.045,360.43 893.5,354C 903.908,347.748 913.575,340.581 922.5,332.5 Z"/></g>
<g><path style="opacity:1" fill="#4ea339" d="M 936.5,335.5 C 936.118,340.835 934.785,345.835 932.5,350.5C 922.296,361.234 915.463,373.901 912,388.5C 910.468,397.842 908.634,406.842 906.5,415.5C 905.464,396.14 908.964,377.14 917,358.5C 918.833,355.5 920.667,352.5 922.5,349.5C 922.376,348.893 922.043,348.56 921.5,348.5C 925.899,343.468 930.899,339.135 936.5,335.5 Z"/></g>
<g><path style="opacity:0.993" fill="#82bb04" d="M 921.5,348.5 C 922.043,348.56 922.376,348.893 922.5,349.5C 920.667,352.5 918.833,355.5 917,358.5C 908.964,377.14 905.464,396.14 906.5,415.5C 901.201,415.757 897.035,413.424 894,408.5C 897.478,385.879 906.645,365.879 921.5,348.5 Z"/></g>
<g><path style="opacity:1" fill="#51a437" d="M 1021.5,350.5 C 1015.94,359.38 1007.94,364.713 997.5,366.5C 996.038,365.542 994.705,364.376 993.5,363C 1004.22,362.484 1013.55,358.317 1021.5,350.5 Z"/></g>
</svg>
