<?xml version="1.0" encoding="UTF-8"?>
<!DOCTYPE svg PUBLIC "-//W3C//DTD SVG 1.1//EN" "http://www.w3.org/Graphics/SVG/1.1/DTD/svg11.dtd">
<svg xmlns="http://www.w3.org/2000/svg" version="1.1" width="1203px" height="757px" style="shape-rendering:geometricPrecision; text-rendering:geometricPrecision; image-rendering:optimizeQuality; fill-rule:evenodd; clip-rule:evenodd" xmlns:xlink="http://www.w3.org/1999/xlink">
<g><path style="opacity:0.962" fill="#d81e05" d="M -0.5,458.5 C -0.5,453.833 -0.5,449.167 -0.5,444.5C 5.69967,444.849 10.8663,442.849 15,438.5C 33.71,388.743 52.71,339.076 72,289.5C 77,288.167 82,288.167 87,289.5C 105.007,338.189 123.007,386.855 141,435.5C 144.186,442.513 149.686,445.513 157.5,444.5C 157.942,449.691 157.442,454.691 156,459.5C 137.066,459.13 117.899,458.796 98.5,458.5C 98.5,453.833 98.5,449.167 98.5,444.5C 103.988,444.24 109.322,443.24 114.5,441.5C 109.97,429.911 105.637,418.244 101.5,406.5C 83.1758,405.334 64.8424,405.167 46.5,406C 41.8302,418.011 37.1635,430.011 32.5,442C 38.0762,442.95 43.5762,444.117 49,445.5C 49.8785,450.287 49.5452,454.953 48,459.5C 31.774,459.097 15.6073,458.764 -0.5,458.5 Z M 94.5,386.5 C 80.8333,387.833 67.1667,387.833 53.5,386.5C 60.0315,368.074 66.8648,349.741 74,331.5C 81.1399,349.757 87.9732,368.09 94.5,386.5 Z"/></g>
<g><path style="opacity:0.944" fill="#d81e05" d="M 578.5,293.5 C 594.346,291.178 600.846,297.845 598,313.5C 593.666,320.283 587.499,322.783 579.5,321C 570.423,316.928 567.59,310.095 571,300.5C 572.742,297.254 575.242,294.921 578.5,293.5 Z"/></g>
<g><path style="opacity:0.967" fill="#d81e05" d="M 1178.5,305.5 C 1185.29,305.592 1192.29,305.592 1199.5,305.5C 1199.71,307.144 1199.38,308.644 1198.5,310C 1106.07,340.191 1023.41,386.858 950.5,450C 933.964,453.624 917.298,456.457 900.5,458.5C 900.281,457.325 900.614,456.325 901.5,455.5C 937.602,429.67 971.102,400.67 1002,368.5C 1005.39,364.102 1008.39,359.435 1011,354.5C 1012.41,349.528 1010.58,347.195 1005.5,347.5C 1002.77,347.682 1000.11,348.182 997.5,349C 987.916,352.38 978.416,355.88 969,359.5C 952.124,357.399 935.291,355.065 918.5,352.5C 918.33,351.178 918.663,350.011 919.5,349C 1004.55,326.047 1090.88,311.547 1178.5,305.5 Z"/></g>
<g><path style="opacity:0.95" fill="#d81e05" d="M 408.5,455.5 C 408.167,454.5 407.5,453.833 406.5,453.5C 401.564,447.129 399.064,439.796 399,431.5C 398.173,407.594 398.34,383.761 399.5,360C 393.843,359.501 388.176,359.334 382.5,359.5C 382.5,353.833 382.5,348.167 382.5,342.5C 388.758,342.81 394.924,342.476 401,341.5C 403.171,332.814 405.338,324.148 407.5,315.5C 412.5,315.5 417.5,315.5 422.5,315.5C 422.5,324.5 422.5,333.5 422.5,342.5C 431.833,342.5 441.167,342.5 450.5,342.5C 450.5,348.167 450.5,353.833 450.5,359.5C 441.167,359.5 431.833,359.5 422.5,359.5C 422.333,382.169 422.5,404.836 423,427.5C 423.297,430.914 423.964,434.247 425,437.5C 427.153,440.92 430.319,442.253 434.5,441.5C 440.818,441.463 446.651,439.796 452,436.5C 454.696,440.56 456.863,444.893 458.5,449.5C 451.082,456.53 442.082,460.363 431.5,461C 422.951,462.262 415.285,460.429 408.5,455.5 Z"/></g>
<g><path style="opacity:0.958" fill="#d81e05" d="M 289.5,452.5 C 289.5,441.833 289.5,431.167 289.5,420.5C 294.833,420.5 300.167,420.5 305.5,420.5C 307.096,426.347 308.596,432.347 310,438.5C 314.85,442.633 320.517,444.299 327,443.5C 332.857,443.991 338.357,442.825 343.5,440C 351.072,432.284 351.406,424.284 344.5,416C 333.872,411.259 322.872,407.592 311.5,405C 293.053,397.601 286.22,384.434 291,365.5C 296.255,351.918 306.089,343.752 320.5,341C 337.079,337.94 352.912,340.107 368,347.5C 368.819,357.744 368.652,367.91 367.5,378C 362.167,378.667 356.833,378.667 351.5,378C 349.903,372.119 348.07,366.285 346,360.5C 335.595,356.184 325.428,356.684 315.5,362C 309.141,373.25 312.141,380.917 324.5,385C 335.784,387.873 346.784,391.539 357.5,396C 372.083,406.515 376.25,420.348 370,437.5C 363.964,449.857 354.131,457.357 340.5,460C 326.262,462.307 312.262,461.307 298.5,457C 295.177,455.96 292.177,454.46 289.5,452.5 Z"/></g>
<g><path style="opacity:0.955" fill="#d81e05" d="M 504.5,353.5 C 504.786,355.933 505.452,355.933 506.5,353.5C 516.872,341.156 529.872,337.156 545.5,341.5C 545.971,351.001 545.471,360.334 544,369.5C 534.176,364.078 524.009,363.244 513.5,367C 511.04,368.458 508.873,370.291 507,372.5C 506.102,395.194 506.436,417.86 508,440.5C 508.772,441.849 509.939,442.682 511.5,443C 516.489,443.749 521.489,444.415 526.5,445C 527.632,449.413 527.799,453.913 527,458.5C 508.23,459.284 489.564,459.618 471,459.5C 470.586,459.043 470.086,458.709 469.5,458.5C 468.507,453.88 468.173,449.214 468.5,444.5C 472.509,444.142 476.509,443.642 480.5,443C 481.701,442.097 482.535,440.931 483,439.5C 483.479,414.794 483.646,390.294 483.5,366C 482.547,364.045 481.213,362.378 479.5,361C 475.886,359.68 472.219,358.513 468.5,357.5C 468.365,352.923 468.032,348.423 467.5,344C 479.339,342.522 491.339,342.022 503.5,342.5C 503.942,346.154 504.276,349.821 504.5,353.5 Z"/></g>
<g><path style="opacity:0.959" fill="#d81e05" d="M 666.5,339.5 C 678.964,338.182 690.297,341.015 700.5,348C 706.315,355.473 709.482,363.973 710,373.5C 710.333,396.167 710.667,418.833 711,441.5C 715.319,443.193 719.819,444.193 724.5,444.5C 724.827,449.214 724.493,453.88 723.5,458.5C 714.395,462.653 705.395,462.486 696.5,458C 693.238,455.408 690.738,452.241 689,448.5C 680.849,457.389 670.683,461.722 658.5,461.5C 631.027,459.503 619.86,444.837 625,417.5C 627.624,409.209 632.791,403.042 640.5,399C 655.234,393.044 670.568,390.211 686.5,390.5C 687.066,382 686.233,373.667 684,365.5C 681.9,362.533 679.066,360.7 675.5,360C 662.13,358.867 649.297,361.034 637,366.5C 635.726,365.465 634.56,364.298 633.5,363C 633.833,362.667 634.167,362.333 634.5,362C 633.311,359.122 631.978,356.288 630.5,353.5C 634.631,349.928 639.298,347.094 644.5,345C 651.887,342.82 659.22,340.987 666.5,339.5 Z M 685.5,406.5 C 686.655,413.321 686.821,420.321 686,427.5C 683.007,437.65 676.174,442.65 665.5,442.5C 651.789,441.456 646.622,434.122 650,420.5C 653.24,413.614 658.74,409.781 666.5,409C 672.977,408.138 679.311,407.305 685.5,406.5 Z"/></g>
<g><path style="opacity:0.956" fill="#d81e05" d="M 802.5,339.5 C 829.36,338.525 843.194,351.525 844,378.5C 844.333,399.167 844.667,419.833 845,440.5C 846.171,441.893 847.671,442.727 849.5,443C 853.17,443.548 856.837,444.048 860.5,444.5C 860.827,449.214 860.493,453.88 859.5,458.5C 858.914,458.709 858.414,459.043 858,459.5C 841.105,458.763 824.439,458.763 808,459.5C 806.455,454.953 806.121,450.287 807,445.5C 811.047,444.272 815.047,442.938 819,441.5C 820.548,421.528 820.882,401.528 820,381.5C 820.405,367.919 813.905,361.253 800.5,361.5C 791.167,361.944 782.5,364.611 774.5,369.5C 773.334,392.493 773.167,415.493 774,438.5C 774.11,440.848 775.277,442.348 777.5,443C 780.513,443.502 783.513,444.002 786.5,444.5C 786.666,449.511 786.499,454.511 786,459.5C 769.01,459.158 751.843,458.825 734.5,458.5C 734.173,453.786 734.507,449.12 735.5,444.5C 739.526,443.829 743.526,442.996 747.5,442C 748.126,441.25 748.626,440.416 749,439.5C 749.667,414.833 749.667,390.167 749,365.5C 748.727,363.671 747.893,362.171 746.5,361C 742.969,359.594 739.302,358.76 735.5,358.5C 735.5,353.167 735.5,347.833 735.5,342.5C 746.838,342.333 758.172,342.5 769.5,343C 770.136,346.79 770.803,350.623 771.5,354.5C 780.463,346.518 790.796,341.518 802.5,339.5 Z"/></g>
<g><path style="opacity:0.959" fill="#d81e05" d="M 559.5,453.5 C 560.833,451.833 560.833,450.167 559.5,448.5C 559.5,447.167 559.5,445.833 559.5,444.5C 564.564,444.375 569.397,443.375 574,441.5C 574.309,440.234 574.809,439.067 575.5,438C 575.491,414.375 575.491,390.709 575.5,367C 572.672,360.58 567.672,357.747 560.5,358.5C 560.2,353.901 560.533,349.401 561.5,345C 573.875,343.745 586.209,342.245 598.5,340.5C 598.333,371.835 598.5,403.168 599,434.5C 599.096,437.451 599.929,440.118 601.5,442.5C 605.769,443.538 610.102,444.205 614.5,444.5C 614.5,449.167 614.5,453.833 614.5,458.5C 596.876,459.423 579.376,459.756 562,459.5C 559.984,458.045 559.151,456.045 559.5,453.5 Z"/></g>
<g><path style="opacity:0.958" fill="#d81e05" d="M 152.5,342.5 C 165.5,342.5 178.5,342.5 191.5,342.5C 191.333,370.169 191.5,397.835 192,425.5C 193.925,435.427 199.925,440.094 210,439.5C 219.176,438.996 227.676,436.329 235.5,431.5C 236.666,409.841 236.833,388.174 236,366.5C 235.654,364.152 234.487,362.319 232.5,361C 228.714,359.596 224.88,358.43 221,357.5C 220.333,352.833 220.333,348.167 221,343.5C 233.754,342.511 246.587,342.178 259.5,342.5C 259.333,372.835 259.5,403.168 260,433.5C 260.21,436.234 261.044,438.734 262.5,441C 266.887,443.245 271.554,444.411 276.5,444.5C 276.942,449.691 276.442,454.691 275,459.5C 264.219,458.535 253.553,458.535 243,459.5C 242.333,458.833 241.667,458.167 241,457.5C 240.594,453.728 239.761,450.061 238.5,446.5C 224.811,459.09 208.811,463.59 190.5,460C 176.873,454.94 169.373,445.107 168,430.5C 167.957,408.116 167.291,385.783 166,363.5C 162.297,359.94 157.797,358.273 152.5,358.5C 152.5,353.167 152.5,347.833 152.5,342.5 Z"/></g>
<g><path style="opacity:0.071" fill="#d8240d" d="M 504.5,353.5 C 505.167,353.5 505.833,353.5 506.5,353.5C 505.452,355.933 504.786,355.933 504.5,353.5 Z"/></g>
<g><path style="opacity:0.071" fill="#d8240d" d="M 53.5,386.5 C 67.1667,387.833 80.8333,387.833 94.5,386.5C 95.0431,386.56 95.3764,386.893 95.5,387.5C 81.1667,388.833 66.8333,388.833 52.5,387.5C 52.6236,386.893 52.9569,386.56 53.5,386.5 Z"/></g>
<g><path style="opacity:0.2" fill="#d91f07" d="M 305.5,420.5 C 300.167,420.5 294.833,420.5 289.5,420.5C 289.5,431.167 289.5,441.833 289.5,452.5C 288.505,441.679 288.172,430.679 288.5,419.5C 294.358,419.178 300.025,419.511 305.5,420.5 Z"/></g>
<g><path style="opacity:0.071" fill="#d8240d" d="M 559.5,448.5 C 560.833,450.167 560.833,451.833 559.5,453.5C 558.167,451.833 558.167,450.167 559.5,448.5 Z"/></g>
<g><path style="opacity:0.071" fill="#d8240d" d="M 406.5,453.5 C 407.5,453.833 408.167,454.5 408.5,455.5C 407.167,455.5 406.5,454.833 406.5,453.5 Z"/></g>
</svg>
