<?xml version="1.0" encoding="UTF-8"?>
<!DOCTYPE svg PUBLIC "-//W3C//DTD SVG 1.1//EN" "http://www.w3.org/Graphics/SVG/1.1/DTD/svg11.dtd">
<svg xmlns="http://www.w3.org/2000/svg" version="1.1" width="800px" height="449px" style="shape-rendering:geometricPrecision; text-rendering:geometricPrecision; image-rendering:optimizeQuality; fill-rule:evenodd; clip-rule:evenodd" xmlns:xlink="http://www.w3.org/1999/xlink">
<g><path style="opacity:0.149" fill="#6f7da5" d="M 118.5,161.5 C 118.5,160.5 118.5,159.5 118.5,158.5C 102.991,158.17 87.6576,158.504 72.5,159.5C 71.8333,160.167 71.1667,160.833 70.5,161.5C 70.33,160.178 70.6634,159.011 71.5,158C 87.4965,157.5 103.497,157.333 119.5,157.5C 119.768,159.099 119.434,160.432 118.5,161.5 Z"/></g>
<g><path style="opacity:0.149" fill="#6f7da5" d="M 520.5,158.5 C 511.983,158.174 503.65,158.507 495.5,159.5C 495.167,159.5 494.833,159.5 494.5,159.5C 498.445,158.175 502.778,157.508 507.5,157.5C 512.013,157.501 516.347,157.834 520.5,158.5 Z"/></g>
<g><path style="opacity:0.149" fill="#6a78a2" d="M 678.5,167.5 C 685.432,165.696 692.765,164.863 700.5,165C 702.155,163.556 702.822,161.722 702.5,159.5C 693.5,159.5 684.5,159.5 675.5,159.5C 680.569,157.943 685.902,157.276 691.5,157.5C 696.009,157.361 700.342,157.861 704.5,159C 703.991,161.57 702.991,163.903 701.5,166C 693.755,166.199 686.088,166.699 678.5,167.5 Z"/></g>
<g><path style="opacity:0.655" fill="#43578d" d="M 72.5,159.5 C 87.6576,158.504 102.991,158.17 118.5,158.5C 118.5,159.5 118.5,160.5 118.5,161.5C 118.167,161.5 117.833,161.5 117.5,161.5C 102.871,159.516 87.8706,158.85 72.5,159.5 Z"/></g>
<g><path style="opacity:0.655" fill="#546495" d="M 267.5,157.5 C 300.84,157.344 334.174,157.677 367.5,158.5C 367.5,158.833 367.5,159.167 367.5,159.5C 339.498,159.667 311.498,159.5 283.5,159C 277.984,158.827 272.651,158.327 267.5,157.5 Z"/></g>
<g><path style="opacity:0.655" fill="#5c6c9a" d="M 585.5,165.5 C 583.129,162.628 580.129,160.794 576.5,160C 568.841,159.5 561.174,159.334 553.5,159.5C 562.756,156.732 572.089,156.898 581.5,160C 583.464,161.451 584.797,163.284 585.5,165.5 Z"/></g>
<g><path style="opacity:1" fill="#152f70" d="M 191.5,157.5 C 216.833,157.5 242.167,157.5 267.5,157.5C 272.651,158.327 277.984,158.827 283.5,159C 311.498,159.5 339.498,159.667 367.5,159.5C 387.167,160.167 406.833,160.833 426.5,161.5C 424.363,168.382 422.696,175.382 421.5,182.5C 421.5,182.833 421.5,183.167 421.5,183.5C 420.883,183.611 420.383,183.944 420,184.5C 419.163,188.514 418.329,192.514 417.5,196.5C 417.5,196.833 417.5,197.167 417.5,197.5C 416.711,197.783 416.044,198.283 415.5,199C 400.504,199.5 385.504,199.667 370.5,199.5C 367.419,209.741 364.752,220.074 362.5,230.5C 360.446,233.008 359.446,236.008 359.5,239.5C 359.5,239.833 359.5,240.167 359.5,240.5C 358.883,240.611 358.383,240.944 358,241.5C 357.163,245.514 356.329,249.514 355.5,253.5C 355.5,254.167 355.5,254.833 355.5,255.5C 353.744,256.552 353.077,258.219 353.5,260.5C 349.985,268.057 347.651,276.057 346.5,284.5C 346.5,284.833 346.5,285.167 346.5,285.5C 345.522,285.811 344.855,286.478 344.5,287.5C 328.833,288.833 313.167,288.833 297.5,287.5C 298.246,286.264 298.579,284.93 298.5,283.5C 300.765,277.785 302.432,271.785 303.5,265.5C 304.936,261.928 306.436,258.261 308,254.5C 310.714,244.592 313.214,234.592 315.5,224.5C 315.216,222.585 315.549,220.919 316.5,219.5C 318.472,216.916 319.472,213.916 319.5,210.5C 319.5,210.167 319.5,209.833 319.5,209.5C 321.874,206.314 322.874,202.647 322.5,198.5C 307.833,198.5 293.167,198.5 278.5,198.5C 277.503,198.47 276.836,198.97 276.5,200C 282.926,213.631 284.259,227.798 280.5,242.5C 280.737,243.791 280.404,244.791 279.5,245.5C 277.935,247.509 276.935,249.843 276.5,252.5C 276.672,253.492 276.338,254.158 275.5,254.5C 273.75,255.659 272.75,257.326 272.5,259.5C 272.068,260.71 271.401,261.71 270.5,262.5C 269.5,262.833 268.833,263.5 268.5,264.5C 268.5,264.833 268.5,265.167 268.5,265.5C 267.167,265.5 266.5,266.167 266.5,267.5C 265.833,268.833 264.833,269.833 263.5,270.5C 261.167,270.833 259.833,272.167 259.5,274.5C 257.973,274.427 256.973,275.094 256.5,276.5C 256.167,277.5 255.5,278.167 254.5,278.5C 251.246,278.794 248.579,280.127 246.5,282.5C 244.447,282.402 242.78,283.069 241.5,284.5C 240.791,285.404 239.791,285.737 238.5,285.5C 233.805,286.503 229.138,287.503 224.5,288.5C 193.5,288.5 162.5,288.5 131.5,288.5C 131.5,288.167 131.5,287.833 131.5,287.5C 142.505,287.667 153.505,287.5 164.5,287C 121.282,287.154 78.2825,286.32 35.5,284.5C 39.2208,272.328 42.5542,259.994 45.5,247.5C 45.5,247.167 45.5,246.833 45.5,246.5C 47.8758,242.712 49.2091,238.379 49.5,233.5C 53.2637,223.863 56.2637,213.863 58.5,203.5C 58.5,202.833 58.5,202.167 58.5,201.5C 59.1174,201.389 59.6174,201.056 60,200.5C 60.9003,196.829 61.7337,193.163 62.5,189.5C 62.2322,187.901 62.5655,186.568 63.5,185.5C 65.1184,182.112 66.1184,178.446 66.5,174.5C 68.3246,170.435 69.6579,166.101 70.5,161.5C 71.1667,160.833 71.8333,160.167 72.5,159.5C 87.8706,158.85 102.871,159.516 117.5,161.5C 116.185,166.094 115.185,170.761 114.5,175.5C 112.55,179.867 111.217,184.534 110.5,189.5C 108.55,193.871 107.216,198.538 106.5,203.5C 106.5,203.833 106.5,204.167 106.5,204.5C 105.883,204.611 105.383,204.944 105,205.5C 104.503,207.81 104.337,210.143 104.5,212.5C 103.463,213.93 102.796,215.597 102.5,217.5C 100.098,222.101 98.7647,227.101 98.5,232.5C 97.8826,232.611 97.3826,232.944 97,233.5C 95.9722,237.473 95.1389,241.473 94.5,245.5C 93.596,246.209 93.2627,247.209 93.5,248.5C 108.167,248.5 122.833,248.5 137.5,248.5C 137.833,248.5 138.167,248.5 138.5,248.5C 139.097,248.265 139.43,247.765 139.5,247C 137.509,241.878 135.842,236.712 134.5,231.5C 134.5,225.5 134.5,219.5 134.5,213.5C 134.963,210.518 135.296,207.518 135.5,204.5C 137.785,201.665 139.118,198.332 139.5,194.5C 140.906,194.027 141.573,193.027 141.5,191.5C 143.316,189.882 144.649,187.882 145.5,185.5C 146.906,185.027 147.573,184.027 147.5,182.5C 148.833,181.833 149.833,180.833 150.5,179.5C 153.167,177.5 155.5,175.167 157.5,172.5C 160.68,170.745 163.68,168.745 166.5,166.5C 168.153,166.34 169.486,165.674 170.5,164.5C 172.153,164.34 173.486,163.674 174.5,162.5C 174.833,162.5 175.167,162.5 175.5,162.5C 181.245,161.41 186.578,159.744 191.5,157.5 Z M 211.5,209.5 C 209.229,211.612 207.896,214.279 207.5,217.5C 205.613,219.789 204.279,222.455 203.5,225.5C 201.99,226.836 200.323,228.003 198.5,229C 192.865,229.904 187.198,230.404 181.5,230.5C 181.5,229.833 181.5,229.167 181.5,228.5C 181.5,225.167 181.5,221.833 181.5,218.5C 181.5,217.833 181.5,217.167 181.5,216.5C 185.01,208.984 190.343,202.984 197.5,198.5C 198.167,198.5 198.833,198.5 199.5,198.5C 204.772,197.6 210.105,197.267 215.5,197.5C 214.205,201.445 212.871,205.445 211.5,209.5 Z M 221.5,200.5 C 222.391,201.11 223.391,201.443 224.5,201.5C 230.053,206.551 233.72,212.718 235.5,220C 234.713,221.313 235.046,222.48 236.5,223.5C 236.5,224.167 236.5,224.833 236.5,225.5C 235.868,227.743 234.534,229.409 232.5,230.5C 231.726,229.853 230.726,229.52 229.5,229.5C 227.645,229.34 226.312,230.007 225.5,231.5C 228.009,232.745 230.675,233.745 233.5,234.5C 231.245,239.084 228.245,243.084 224.5,246.5C 223.504,246.414 222.671,246.748 222,247.5C 219.743,241.408 215.576,237.075 209.5,234.5C 212.5,233.907 215.5,233.074 218.5,232C 217.468,230.373 216.134,229.207 214.5,228.5C 213.172,226.255 211.339,225.922 209,227.5C 208.964,225.428 209.464,223.428 210.5,221.5C 212.25,220.341 213.25,218.674 213.5,216.5C 214.338,216.158 214.672,215.492 214.5,214.5C 216.776,212.669 218.609,210.336 220,207.5C 221.202,205.323 221.702,202.989 221.5,200.5 Z M 217.5,247.5 C 217.423,248.75 216.756,249.583 215.5,250C 209.796,250.687 204.13,250.521 198.5,249.5C 198.167,249.5 197.833,249.5 197.5,249.5C 195.882,247.684 193.882,246.351 191.5,245.5C 189.157,242.793 186.823,240.126 184.5,237.5C 183.782,235.863 183.616,234.197 184,232.5C 190.085,233.312 196.252,233.812 202.5,234C 207.092,239.1 212.092,243.6 217.5,247.5 Z"/></g>
<g><path style="opacity:0.149" fill="#6776a0" d="M 191.5,157.5 C 186.578,159.744 181.245,161.41 175.5,162.5C 176.058,161.21 177.058,160.377 178.5,160C 182.878,159.321 187.211,158.488 191.5,157.5 Z"/></g>
<g><path style="opacity:0.8" fill="#273f7c" d="M 367.5,158.5 C 368.833,158.5 370.167,158.5 371.5,158.5C 390.004,159.167 408.671,159.833 427.5,160.5C 427.376,161.107 427.043,161.44 426.5,161.5C 406.833,160.833 387.167,160.167 367.5,159.5C 367.5,159.167 367.5,158.833 367.5,158.5 Z"/></g>
<g><path style="opacity:1" fill="#162f70" d="M 494.5,159.5 C 494.833,159.5 495.167,159.5 495.5,159.5C 504.173,159.334 512.84,159.5 521.5,160C 523.848,160.346 525.681,161.513 527,163.5C 527.998,171.819 525.832,179.152 520.5,185.5C 520.5,186.167 520.167,186.5 519.5,186.5C 511.346,187.036 503.346,187.703 495.5,188.5C 494.883,188.611 494.383,188.944 494,189.5C 492.85,193.112 492.017,196.778 491.5,200.5C 489.896,201.287 489.229,202.62 489.5,204.5C 487.167,204.5 484.833,204.5 482.5,204.5C 485.132,195.307 487.465,185.974 489.5,176.5C 489.216,174.585 489.549,172.919 490.5,171.5C 492.806,167.915 494.139,163.915 494.5,159.5 Z M 500.5,171.5 C 500.5,170.833 500.5,170.167 500.5,169.5C 503.361,167.927 506.528,167.261 510,167.5C 512.5,167.667 515,167.833 517.5,168C 518.022,168.561 518.355,169.228 518.5,170C 517.168,172.982 515.835,175.982 514.5,179C 509.362,180.087 504.195,180.92 499,181.5C 498.847,178.1 499.347,174.767 500.5,171.5 Z"/></g>
<g><path style="opacity:1" fill="#183071" d="M 553.5,159.5 C 561.174,159.334 568.841,159.5 576.5,160C 580.129,160.794 583.129,162.628 585.5,165.5C 585.464,170.93 584.797,176.263 583.5,181.5C 581.172,185.42 579.839,189.754 579.5,194.5C 578.094,194.973 577.427,195.973 577.5,197.5C 575.365,200.739 572.365,202.739 568.5,203.5C 560.112,203.773 551.779,203.44 543.5,202.5C 541.847,202.34 540.514,201.674 539.5,200.5C 539.573,198.973 538.906,197.973 537.5,197.5C 537.177,191.364 537.844,185.364 539.5,179.5C 539.5,178.833 539.5,178.167 539.5,177.5C 540.117,177.389 540.617,177.056 541,176.5C 541.685,173.421 542.519,170.421 543.5,167.5C 546.429,164.364 549.762,161.697 553.5,159.5 Z M 576.5,168.5 C 576.5,170.833 576.5,173.167 576.5,175.5C 575.883,175.611 575.383,175.944 575,176.5C 573.403,195.885 563.57,201.885 545.5,194.5C 545.5,191.833 545.5,189.167 545.5,186.5C 547.749,182.544 549.249,178.211 550,173.5C 550.785,171.714 551.951,170.214 553.5,169C 561.109,167.17 568.776,167.004 576.5,168.5 Z"/></g>
<g><path style="opacity:0.255" fill="#6c7aa3" d="M 611.5,168.5 C 611.674,166.139 612.007,163.806 612.5,161.5C 613.404,160.791 613.737,159.791 613.5,158.5C 610.941,158.198 608.607,158.532 606.5,159.5C 604.682,163.77 603.015,168.103 601.5,172.5C 602.039,167.679 603.205,163.012 605,158.5C 608.057,157.549 611.223,157.216 614.5,157.5C 614.874,161.647 613.874,165.314 611.5,168.5 Z"/></g>
<g><path style="opacity:0.655" fill="#3d5189" d="M 606.5,159.5 C 608.607,158.532 610.941,158.198 613.5,158.5C 613.737,159.791 613.404,160.791 612.5,161.5C 611.082,159.692 609.082,159.025 606.5,159.5 Z"/></g>
<g><path style="opacity:1" fill="#152e70" d="M 606.5,159.5 C 609.082,159.025 611.082,159.692 612.5,161.5C 612.007,163.806 611.674,166.139 611.5,168.5C 610.883,168.611 610.383,168.944 610,169.5C 609.304,172.478 608.804,175.478 608.5,178.5C 607.883,178.611 607.383,178.944 607,179.5C 605.637,184.084 604.803,188.751 604.5,193.5C 603.89,194.391 603.557,195.391 603.5,196.5C 610.5,197.833 617.5,199.167 624.5,200.5C 624.5,200.833 624.5,201.167 624.5,201.5C 623.733,202.172 623.066,203.005 622.5,204C 612.839,204.5 603.172,204.666 593.5,204.5C 594.836,198.815 596.17,193.149 597.5,187.5C 597.5,186.833 597.5,186.167 597.5,185.5C 598.117,185.389 598.617,185.056 599,184.5C 599.9,180.829 600.734,177.163 601.5,173.5C 601.5,173.167 601.5,172.833 601.5,172.5C 603.015,168.103 604.682,163.77 606.5,159.5 Z"/></g>
<g><path style="opacity:0.443" fill="#5d6c9b" d="M 649.5,172.5 C 650.269,168.257 651.269,164.091 652.5,160C 650.167,159.333 647.833,159.333 645.5,160C 645.141,162.63 644.141,164.797 642.5,166.5C 642.063,158.678 645.729,155.678 653.5,157.5C 653.235,162.899 651.902,167.899 649.5,172.5 Z"/></g>
<g><path style="opacity:1" fill="#162f70" d="M 675.5,159.5 C 684.5,159.5 693.5,159.5 702.5,159.5C 702.822,161.722 702.155,163.556 700.5,165C 692.765,164.863 685.432,165.696 678.5,167.5C 677.25,167.577 676.417,168.244 676,169.5C 675.231,172.099 675.398,174.599 676.5,177C 681.833,177.333 687.167,177.667 692.5,178C 694.323,178.997 695.99,180.164 697.5,181.5C 697.051,186.863 696.384,192.196 695.5,197.5C 695.5,198.167 695.167,198.5 694.5,198.5C 693.094,198.973 692.427,199.973 692.5,201.5C 691.833,201.833 691.167,202.167 690.5,202.5C 679.915,204.607 669.249,204.941 658.5,203.5C 659.246,202.264 659.579,200.93 659.5,199.5C 659.5,199.167 659.5,198.833 659.5,198.5C 667.174,198.666 674.841,198.5 682.5,198C 683.942,197.623 684.942,196.79 685.5,195.5C 687.539,194.089 688.539,192.089 688.5,189.5C 688.5,188.167 688.5,186.833 688.5,185.5C 688.082,184.778 687.416,184.278 686.5,184C 680.833,183.667 675.167,183.333 669.5,183C 667.406,181.745 666.406,179.912 666.5,177.5C 667.095,174.86 667.428,172.193 667.5,169.5C 667.232,167.901 667.566,166.568 668.5,165.5C 670.858,163.471 673.192,161.471 675.5,159.5 Z"/></g>
<g><path style="opacity:0.537" fill="#5a6a99" d="M 495.5,159.5 C 503.65,158.507 511.983,158.174 520.5,158.5C 526.04,159.207 529.04,162.374 529.5,168C 528.693,173.063 527.193,177.897 525,182.5C 523.871,184.141 522.371,185.141 520.5,185.5C 525.832,179.152 527.998,171.819 527,163.5C 525.681,161.513 523.848,160.346 521.5,160C 512.84,159.5 504.173,159.334 495.5,159.5 Z"/></g>
<g><path style="opacity:1" fill="#162f70" d="M 649.5,172.5 C 649.5,172.833 649.5,173.167 649.5,173.5C 647.703,177.329 646.203,181.329 645,185.5C 643.957,188.757 643.457,192.09 643.5,195.5C 641.787,196.635 641.12,198.302 641.5,200.5C 641.768,202.099 641.434,203.432 640.5,204.5C 637.833,204.5 635.167,204.5 632.5,204.5C 633.092,201.873 633.425,199.206 633.5,196.5C 634.117,196.389 634.617,196.056 635,195.5C 636.229,188.914 638.229,182.581 641,176.5C 641.61,173.173 642.11,169.839 642.5,166.5C 644.141,164.797 645.141,162.63 645.5,160C 647.833,159.333 650.167,159.333 652.5,160C 651.269,164.091 650.269,168.257 649.5,172.5 Z"/></g>
<g><path style="opacity:1" fill="#152e70" d="M 727.5,171.5 C 725.642,173.774 725.309,176.274 726.5,179C 734.167,179.667 741.833,179.667 749.5,179C 750.252,178.329 750.586,177.496 750.5,176.5C 752.513,171.336 754.347,166.003 756,160.5C 758.381,159.565 760.881,159.232 763.5,159.5C 759.853,172.087 756.52,184.753 753.5,197.5C 753.5,197.833 753.5,198.167 753.5,198.5C 751.989,199.958 750.989,201.791 750.5,204C 748.19,204.497 745.857,204.663 743.5,204.5C 743.5,203.5 743.5,202.5 743.5,201.5C 745.025,198.762 746.025,195.762 746.5,192.5C 747.924,190.485 748.59,188.152 748.5,185.5C 739.983,185.174 731.65,185.507 723.5,186.5C 721.584,190.163 720.584,194.163 720.5,198.5C 718.989,199.958 717.989,201.791 717.5,204C 715.19,204.497 712.857,204.663 710.5,204.5C 711.815,199.906 712.815,195.239 713.5,190.5C 713.5,190.167 713.5,189.833 713.5,189.5C 714.117,189.389 714.617,189.056 715,188.5C 715.696,185.522 716.196,182.522 716.5,179.5C 718.28,178.01 718.946,176.01 718.5,173.5C 720.024,170.084 721.024,166.417 721.5,162.5C 723.772,159.448 726.772,158.782 730.5,160.5C 728.883,164.014 727.883,167.681 727.5,171.5 Z"/></g>
<g><path style="opacity:0.149" fill="#62729e" d="M 727.5,171.5 C 727.883,167.681 728.883,164.014 730.5,160.5C 726.772,158.782 723.772,159.448 721.5,162.5C 721.421,161.07 721.754,159.736 722.5,158.5C 725.428,157.516 728.428,157.183 731.5,157.5C 731.54,162.678 730.207,167.344 727.5,171.5 Z"/></g>
<g><path style="opacity:0.443" fill="#6979a2" d="M 174.5,162.5 C 173.486,163.674 172.153,164.34 170.5,164.5C 171.287,162.896 172.62,162.229 174.5,162.5 Z"/></g>
<g><path style="opacity:0.255" fill="#63729e" d="M 494.5,159.5 C 494.139,163.915 492.806,167.915 490.5,171.5C 490.719,166.986 492.053,162.986 494.5,159.5 Z"/></g>
<g><path style="opacity:0.345" fill="#61709d" d="M 553.5,159.5 C 549.762,161.697 546.429,164.364 543.5,167.5C 543.751,165.83 544.418,164.33 545.5,163C 547.818,161.007 550.484,159.841 553.5,159.5 Z"/></g>
<g><path style="opacity:0.443" fill="#6876a1" d="M 675.5,159.5 C 673.192,161.471 670.858,163.471 668.5,165.5C 669.612,162.054 671.945,160.054 675.5,159.5 Z"/></g>
<g><path style="opacity:0.443" fill="#6e7ca5" d="M 170.5,164.5 C 169.486,165.674 168.153,166.34 166.5,166.5C 167.287,164.896 168.62,164.229 170.5,164.5 Z"/></g>
<g><path style="opacity:0.149" fill="#6877a1" d="M 721.5,162.5 C 721.024,166.417 720.024,170.084 718.5,173.5C 718.674,170.126 719.174,166.793 720,163.5C 720.383,162.944 720.883,162.611 721.5,162.5 Z"/></g>
<g><path style="opacity:0.149" fill="#6675a0" d="M 500.5,171.5 C 499.347,174.767 498.847,178.1 499,181.5C 504.195,180.92 509.362,180.087 514.5,179C 515.835,175.982 517.168,172.982 518.5,170C 518.355,169.228 518.022,168.561 517.5,168C 515,167.833 512.5,167.667 510,167.5C 506.528,167.261 503.361,167.927 500.5,169.5C 500.33,168.178 500.663,167.011 501.5,166C 506.5,165.333 511.5,165.333 516.5,166C 518.852,166.576 519.852,168.076 519.5,170.5C 518.293,173.744 516.959,176.911 515.5,180C 509.762,182.295 503.762,183.128 497.5,182.5C 497.337,180.143 497.503,177.81 498,175.5C 498.2,173.68 499.034,172.347 500.5,171.5 Z"/></g>
<g><path style="opacity:0.149" fill="#64749f" d="M 576.5,168.5 C 568.776,167.004 561.109,167.17 553.5,169C 551.951,170.214 550.785,171.714 550,173.5C 549.249,178.211 547.749,182.544 545.5,186.5C 546.162,179.496 548.495,173.162 552.5,167.5C 559.382,165.608 566.382,165.108 573.5,166C 574.942,166.377 575.942,167.21 576.5,168.5 Z"/></g>
<g><path style="opacity:0.149" fill="#6e7ca4" d="M 70.5,161.5 C 69.6579,166.101 68.3246,170.435 66.5,174.5C 66.8389,169.754 68.1722,165.42 70.5,161.5 Z"/></g>
<g><path style="opacity:0.255" fill="#65749f" d="M 166.5,166.5 C 163.68,168.745 160.68,170.745 157.5,172.5C 159.63,169.263 162.63,167.263 166.5,166.5 Z"/></g>
<g><path style="opacity:0.255" fill="#6d7ba4" d="M 543.5,167.5 C 542.519,170.421 541.685,173.421 541,176.5C 540.617,177.056 540.117,177.389 539.5,177.5C 540.162,174.852 540.829,172.185 541.5,169.5C 541.747,168.287 542.414,167.62 543.5,167.5 Z"/></g>
<g><path style="opacity:0.255" fill="#6675a0" d="M 611.5,168.5 C 611.41,172.214 610.41,175.548 608.5,178.5C 608.804,175.478 609.304,172.478 610,169.5C 610.383,168.944 610.883,168.611 611.5,168.5 Z"/></g>
<g><path style="opacity:0.149" fill="#6675a0" d="M 117.5,161.5 C 117.833,161.5 118.167,161.5 118.5,161.5C 118.39,166.622 117.056,171.288 114.5,175.5C 115.185,170.761 116.185,166.094 117.5,161.5 Z"/></g>
<g><path style="opacity:0.537" fill="#5d6d9a" d="M 157.5,172.5 C 155.5,175.167 153.167,177.5 150.5,179.5C 151.833,176.167 154.167,173.833 157.5,172.5 Z"/></g>
<g><path style="opacity:0.149" fill="#5e6d9b" d="M 585.5,165.5 C 586.641,168.64 586.808,171.973 586,175.5C 585.76,177.852 584.927,179.852 583.5,181.5C 584.797,176.263 585.464,170.93 585.5,165.5 Z"/></g>
<g><path style="opacity:0.345" fill="#63729e" d="M 678.5,167.5 C 676.949,169.913 676.283,172.579 676.5,175.5C 681.511,175.334 686.511,175.501 691.5,176C 694.641,176.715 696.641,178.548 697.5,181.5C 695.99,180.164 694.323,178.997 692.5,178C 687.167,177.667 681.833,177.333 676.5,177C 675.398,174.599 675.231,172.099 676,169.5C 676.417,168.244 677.25,167.577 678.5,167.5 Z"/></g>
<g><path style="opacity:0.698" fill="#4d5f92" d="M 718.5,173.5 C 718.946,176.01 718.28,178.01 716.5,179.5C 716.875,177.302 717.542,175.302 718.5,173.5 Z"/></g>
<g><path style="opacity:0.255" fill="#6776a0" d="M 601.5,173.5 C 600.734,177.163 599.9,180.829 599,184.5C 598.617,185.056 598.117,185.389 597.5,185.5C 598.266,181.837 599.1,178.171 600,174.5C 600.383,173.944 600.883,173.611 601.5,173.5 Z"/></g>
<g><path style="opacity:0.698" fill="#5c6b9a" d="M 642.5,166.5 C 642.11,169.839 641.61,173.173 641,176.5C 638.229,182.581 636.229,188.914 635,195.5C 634.617,196.056 634.117,196.389 633.5,196.5C 635.636,186.112 638.636,176.112 642.5,166.5 Z"/></g>
<g><path style="opacity:0.149" fill="#5d6d9b" d="M 371.5,158.5 C 390.5,158.5 409.5,158.5 428.5,158.5C 426.532,166.044 424.698,173.711 423,181.5C 422.617,182.056 422.117,182.389 421.5,182.5C 422.696,175.382 424.363,168.382 426.5,161.5C 427.043,161.44 427.376,161.107 427.5,160.5C 408.671,159.833 390.004,159.167 371.5,158.5 Z"/></g>
<g><path style="opacity:0.537" fill="#5d6c9a" d="M 727.5,171.5 C 727.643,173.262 727.309,174.929 726.5,176.5C 726.833,177.5 727.5,178.167 728.5,178.5C 735.044,178.377 741.544,178.377 748,178.5C 748.708,177.619 749.542,176.953 750.5,176.5C 750.586,177.496 750.252,178.329 749.5,179C 741.833,179.667 734.167,179.667 726.5,179C 725.309,176.274 725.642,173.774 727.5,171.5 Z"/></g>
<g><path style="opacity:0.255" fill="#5b6b99" d="M 649.5,173.5 C 648.363,181.243 646.363,188.576 643.5,195.5C 643.457,192.09 643.957,188.757 645,185.5C 646.203,181.329 647.703,177.329 649.5,173.5 Z"/></g>
<g><path style="opacity:0.149" fill="#6978a2" d="M 716.5,179.5 C 716.196,182.522 715.696,185.522 715,188.5C 714.617,189.056 714.117,189.389 713.5,189.5C 714.007,185.917 715.007,182.583 716.5,179.5 Z"/></g>
<g><path style="opacity:0.443" fill="#63729e" d="M 753.5,197.5 C 756.52,184.753 759.853,172.087 763.5,159.5C 760.881,159.232 758.381,159.565 756,160.5C 754.347,166.003 752.513,171.336 750.5,176.5C 751.044,169.809 753.044,163.643 756.5,158C 759.482,157.502 762.482,157.335 765.5,157.5C 762.109,171.076 758.109,184.41 753.5,197.5 Z"/></g>
<g><path style="opacity:0.149" fill="#6f7da5" d="M 66.5,174.5 C 66.1184,178.446 65.1184,182.112 63.5,185.5C 63.4318,181.43 64.4318,177.763 66.5,174.5 Z"/></g>
<g><path style="opacity:0.255" fill="#6d7ca4" d="M 150.5,179.5 C 149.833,180.833 148.833,181.833 147.5,182.5C 147.5,180.5 148.5,179.5 150.5,179.5 Z"/></g>
<g><path style="opacity:0.537" fill="#576897" d="M 147.5,182.5 C 147.573,184.027 146.906,185.027 145.5,185.5C 145.427,183.973 146.094,182.973 147.5,182.5 Z"/></g>
<g><path style="opacity:0.443" fill="#63729e" d="M 667.5,169.5 C 667.428,172.193 667.095,174.86 666.5,177.5C 666.406,179.912 667.406,181.745 669.5,183C 675.167,183.333 680.833,183.667 686.5,184C 687.416,184.278 688.082,184.778 688.5,185.5C 681.867,184.786 675.2,184.286 668.5,184C 663.502,179.502 663.168,174.669 667.5,169.5 Z"/></g>
<g><path style="opacity:0.345" fill="#6674a0" d="M 723.5,186.5 C 731.65,185.507 739.983,185.174 748.5,185.5C 748.59,188.152 747.924,190.485 746.5,192.5C 746.698,190.425 746.865,188.425 747,186.5C 738.987,187.397 731.154,187.397 723.5,186.5 Z"/></g>
<g><path style="opacity:0.149" fill="#6d7ba4" d="M 114.5,175.5 C 114.077,180.54 112.744,185.207 110.5,189.5C 111.217,184.534 112.55,179.867 114.5,175.5 Z"/></g>
<g><path style="opacity:0.345" fill="#5f6f9c" d="M 519.5,186.5 C 519.082,187.222 518.416,187.722 517.5,188C 510.174,188.5 502.841,188.666 495.5,188.5C 503.346,187.703 511.346,187.036 519.5,186.5 Z"/></g>
<g><path style="opacity:0.345" fill="#62719e" d="M 145.5,185.5 C 144.649,187.882 143.316,189.882 141.5,191.5C 141.87,188.733 143.204,186.733 145.5,185.5 Z"/></g>
<g><path style="opacity:0.255" fill="#6978a2" d="M 421.5,183.5 C 420.778,187.506 419.945,191.506 419,195.5C 418.617,196.056 418.117,196.389 417.5,196.5C 418.329,192.514 419.163,188.514 420,184.5C 420.383,183.944 420.883,183.611 421.5,183.5 Z"/></g>
<g><path style="opacity:0.345" fill="#61719d" d="M 583.5,181.5 C 583.231,186.264 581.898,190.597 579.5,194.5C 579.839,189.754 581.172,185.42 583.5,181.5 Z"/></g>
<g><path style="opacity:0.149" fill="#61709d" d="M 608.5,178.5 C 607.611,183.728 606.278,188.728 604.5,193.5C 604.803,188.751 605.637,184.084 607,179.5C 607.383,178.944 607.883,178.611 608.5,178.5 Z"/></g>
<g><path style="opacity:0.345" fill="#5e6d9b" d="M 539.5,179.5 C 537.844,185.364 537.177,191.364 537.5,197.5C 536.06,196.054 535.393,194.221 535.5,192C 535.85,187.405 537.183,183.238 539.5,179.5 Z"/></g>
<g><path style="opacity:0.255" fill="#6a78a2" d="M 62.5,189.5 C 61.7337,193.163 60.9003,196.829 60,200.5C 59.6174,201.056 59.1174,201.389 58.5,201.5C 59.2663,197.837 60.0997,194.171 61,190.5C 61.3826,189.944 61.8826,189.611 62.5,189.5 Z"/></g>
<g><path style="opacity:0.255" fill="#6877a2" d="M 141.5,191.5 C 141.573,193.027 140.906,194.027 139.5,194.5C 139.427,192.973 140.094,191.973 141.5,191.5 Z"/></g>
<g><path style="opacity:0.443" fill="#6d7ba4" d="M 688.5,189.5 C 688.539,192.089 687.539,194.089 685.5,195.5C 685.755,193.033 686.755,191.033 688.5,189.5 Z"/></g>
<g><path style="opacity:0.537" fill="#65749f" d="M 713.5,190.5 C 712.815,195.239 711.815,199.906 710.5,204.5C 712.857,204.663 715.19,204.497 717.5,204C 717.989,201.791 718.989,199.958 720.5,198.5C 720.064,200.746 719.397,202.913 718.5,205C 715.518,205.498 712.518,205.665 709.5,205.5C 709.762,200.112 711.095,195.112 713.5,190.5 Z"/></g>
<g><path style="opacity:0.345" fill="#64739f" d="M 495.5,188.5 C 495.074,192.902 493.74,196.902 491.5,200.5C 492.017,196.778 492.85,193.112 494,189.5C 494.383,188.944 494.883,188.611 495.5,188.5 Z"/></g>
<g><path style="opacity:0.345" fill="#6a79a2" d="M 697.5,181.5 C 698.638,184.304 698.805,187.304 698,190.5C 697.844,193.191 697.011,195.524 695.5,197.5C 696.384,192.196 697.051,186.863 697.5,181.5 Z"/></g>
<g><path style="opacity:0.255" fill="#6b7aa3" d="M 723.5,186.5 C 723.102,190.761 722.102,194.761 720.5,198.5C 720.584,194.163 721.584,190.163 723.5,186.5 Z"/></g>
<g><path style="opacity:0.769" fill="#354b84" d="M 215.5,196.5 C 211.167,195.167 206.833,195.167 202.5,196.5C 206.815,193.939 211.148,193.939 215.5,196.5 Z"/></g>
<g><path style="opacity:0.149" fill="#6675a0" d="M 215.5,196.5 C 216.695,196.866 217.361,197.699 217.5,199C 216.112,202.954 214.112,206.454 211.5,209.5C 212.871,205.445 214.205,201.445 215.5,197.5C 210.105,197.267 204.772,197.6 199.5,198.5C 199.973,197.094 200.973,196.427 202.5,196.5C 206.833,195.167 211.167,195.167 215.5,196.5 Z"/></g>
<g><path style="opacity:0.149" fill="#61709d" d="M 576.5,175.5 C 576.202,194.302 566.868,201.802 548.5,198C 546.574,197.578 545.574,196.411 545.5,194.5C 563.57,201.885 573.403,195.885 575,176.5C 575.383,175.944 575.883,175.611 576.5,175.5 Z"/></g>
<g><path style="opacity:0.149" fill="#6a78a2" d="M 579.5,194.5 C 579.573,196.027 578.906,197.027 577.5,197.5C 577.427,195.973 578.094,194.973 579.5,194.5 Z"/></g>
<g><path style="opacity:0.255" fill="#6c7aa3" d="M 746.5,192.5 C 746.025,195.762 745.025,198.762 743.5,201.5C 743.59,199.304 743.923,197.137 744.5,195C 744.684,193.624 745.351,192.791 746.5,192.5 Z"/></g>
<g><path style="opacity:0.345" fill="#5f6e9c" d="M 139.5,194.5 C 139.118,198.332 137.785,201.665 135.5,204.5C 136.263,200.863 137.597,197.53 139.5,194.5 Z"/></g>
<g><path style="opacity:0.443" fill="#6e7ca4" d="M 603.5,196.5 C 610.248,197.085 616.915,197.085 623.5,196.5C 625.534,197.574 625.867,198.907 624.5,200.5C 617.5,199.167 610.5,197.833 603.5,196.5 Z"/></g>
<g><path style="opacity:0.443" fill="#64749f" d="M 643.5,195.5 C 643.598,197.553 642.931,199.22 641.5,200.5C 641.12,198.302 641.787,196.635 643.5,195.5 Z"/></g>
<g><path style="opacity:0.443" fill="#6c7aa3" d="M 685.5,195.5 C 684.942,196.79 683.942,197.623 682.5,198C 674.841,198.5 667.174,198.666 659.5,198.5C 659.811,197.522 660.478,196.855 661.5,196.5C 666.959,196.714 672.459,197.047 678,197.5C 680.436,196.645 682.936,195.979 685.5,195.5 Z"/></g>
<g><path style="opacity:0.149" fill="#6a78a2" d="M 110.5,189.5 C 109.83,193.851 108.996,198.184 108,202.5C 107.617,203.056 107.117,203.389 106.5,203.5C 107.216,198.538 108.55,193.871 110.5,189.5 Z"/></g>
<g><path style="opacity:0.149" fill="#7683a9" d="M 278.5,199.5 C 278.5,199.167 278.5,198.833 278.5,198.5C 293.167,198.5 307.833,198.5 322.5,198.5C 322.874,202.647 321.874,206.314 319.5,209.5C 320.167,206.167 320.833,202.833 321.5,199.5C 307.167,199.5 292.833,199.5 278.5,199.5 Z"/></g>
<g><path style="opacity:0.345" fill="#5f6e9c" d="M 489.5,176.5 C 487.465,185.974 485.132,195.307 482.5,204.5C 484.833,204.5 487.167,204.5 489.5,204.5C 489.229,202.62 489.896,201.287 491.5,200.5C 491.579,201.93 491.246,203.264 490.5,204.5C 487.572,205.484 484.572,205.817 481.5,205.5C 481.881,200.763 482.714,196.096 484,191.5C 485.831,187.036 487.164,182.369 488,177.5C 488.383,176.944 488.883,176.611 489.5,176.5 Z"/></g>
<g><path style="opacity:0.071" fill="#7985aa" d="M 537.5,197.5 C 538.906,197.973 539.573,198.973 539.5,200.5C 538.094,200.027 537.427,199.027 537.5,197.5 Z"/></g>
<g><path style="opacity:0.149" fill="#6a78a2" d="M 417.5,197.5 C 417.586,198.496 417.252,199.329 416.5,200C 401.504,200.5 386.504,200.667 371.5,200.5C 370.671,204.486 369.837,208.486 369,212.5C 367.114,218.664 364.947,224.664 362.5,230.5C 364.752,220.074 367.419,209.741 370.5,199.5C 385.504,199.667 400.504,199.5 415.5,199C 416.044,198.283 416.711,197.783 417.5,197.5 Z"/></g>
<g><path style="opacity:0.071" fill="#7380a7" d="M 694.5,198.5 C 694.573,200.027 693.906,201.027 692.5,201.5C 692.427,199.973 693.094,198.973 694.5,198.5 Z"/></g>
<g><path style="opacity:0.345" fill="#5d6e9b" d="M 221.5,200.5 C 221.5,200.167 221.5,199.833 221.5,199.5C 223.027,199.427 224.027,200.094 224.5,201.5C 223.391,201.443 222.391,201.11 221.5,200.5 Z"/></g>
<g><path style="opacity:0.071" fill="#6f7da5" d="M 197.5,198.5 C 190.343,202.984 185.01,208.984 181.5,216.5C 183.63,207.701 188.964,201.701 197.5,198.5 Z"/></g>
<g><path style="opacity:0.255" fill="#6978a2" d="M 543.5,202.5 C 551.779,203.44 560.112,203.773 568.5,203.5C 560.677,204.656 552.677,204.823 544.5,204C 543.944,203.617 543.611,203.117 543.5,202.5 Z"/></g>
<g><path style="opacity:0.255" fill="#6574a0" d="M 633.5,196.5 C 633.425,199.206 633.092,201.873 632.5,204.5C 635.167,204.5 637.833,204.5 640.5,204.5C 637.713,205.477 634.713,205.81 631.5,205.5C 631.42,202.219 632.087,199.219 633.5,196.5 Z"/></g>
<g><path style="opacity:0.443" fill="#63739e" d="M 597.5,187.5 C 596.17,193.149 594.836,198.815 593.5,204.5C 603.172,204.666 612.839,204.5 622.5,204C 623.066,203.005 623.733,202.172 624.5,201.5C 624.67,202.822 624.337,203.989 623.5,205C 613.167,205.667 602.833,205.667 592.5,205C 592.167,204.667 591.833,204.333 591.5,204C 593.131,198.271 595.131,192.771 597.5,187.5 Z"/></g>
<g><path style="opacity:0.443" fill="#6776a0" d="M 659.5,199.5 C 659.579,200.93 659.246,202.264 658.5,203.5C 669.249,204.941 679.915,204.607 690.5,202.5C 688.974,204.13 686.974,204.963 684.5,205C 675.506,205.5 666.506,205.666 657.5,205.5C 657.259,203.102 657.926,201.102 659.5,199.5 Z"/></g>
<g><path style="opacity:0.443" fill="#6877a1" d="M 753.5,198.5 C 753.064,200.746 752.397,202.913 751.5,205C 748.518,205.498 745.518,205.665 742.5,205.5C 742.232,203.901 742.566,202.568 743.5,201.5C 743.5,202.5 743.5,203.5 743.5,204.5C 745.857,204.663 748.19,204.497 750.5,204C 750.989,201.791 751.989,199.958 753.5,198.5 Z"/></g>
<g><path style="opacity:0.149" fill="#6876a1" d="M 224.5,201.5 C 233.161,206.147 237.161,213.48 236.5,223.5C 235.046,222.48 234.713,221.313 235.5,220C 233.72,212.718 230.053,206.551 224.5,201.5 Z"/></g>
<g><path style="opacity:0.149" fill="#64739f" d="M 221.5,199.5 C 220.167,199.833 220.167,200.167 221.5,200.5C 221.702,202.989 221.202,205.323 220,207.5C 218.609,210.336 216.776,212.669 214.5,214.5C 215.529,211.593 217.029,208.926 219,206.5C 219.182,203.774 219.682,201.107 220.5,198.5C 221.107,198.624 221.44,198.957 221.5,199.5 Z"/></g>
<g><path style="opacity:0.345" fill="#5e6e9b" d="M 106.5,204.5 C 106.198,207.373 105.531,210.039 104.5,212.5C 104.337,210.143 104.503,207.81 105,205.5C 105.383,204.944 105.883,204.611 106.5,204.5 Z"/></g>
<g><path style="opacity:0.255" fill="#6777a1" d="M 135.5,204.5 C 135.296,207.518 134.963,210.518 134.5,213.5C 134.167,213.5 133.833,213.5 133.5,213.5C 133.42,210.219 134.087,207.219 135.5,204.5 Z"/></g>
<g><path style="opacity:0.255" fill="#6877a1" d="M 319.5,210.5 C 319.472,213.916 318.472,216.916 316.5,219.5C 316.528,216.084 317.528,213.084 319.5,210.5 Z"/></g>
<g><path style="opacity:0.071" fill="#7d8aad" d="M 104.5,212.5 C 104.88,214.698 104.213,216.365 102.5,217.5C 102.796,215.597 103.463,213.93 104.5,212.5 Z"/></g>
<g><path style="opacity:0.537" fill="#5f6e9c" d="M 58.5,203.5 C 56.2637,213.863 53.2637,223.863 49.5,233.5C 49.3893,232.883 49.056,232.383 48.5,232C 51.7192,223.033 54.5525,213.867 57,204.5C 57.3826,203.944 57.8826,203.611 58.5,203.5 Z"/></g>
<g><path style="opacity:0.443" fill="#64739f" d="M 211.5,209.5 C 210.721,212.545 209.387,215.211 207.5,217.5C 207.896,214.279 209.229,211.612 211.5,209.5 Z"/></g>
<g><path style="opacity:0.255" fill="#6877a1" d="M 213.5,216.5 C 213.25,218.674 212.25,220.341 210.5,221.5C 210.75,219.326 211.75,217.659 213.5,216.5 Z"/></g>
<g><path style="opacity:0.443" fill="#62719d" d="M 278.5,198.5 C 278.5,198.833 278.5,199.167 278.5,199.5C 283.226,211.035 284.726,223.035 283,235.5C 282.844,238.191 282.011,240.524 280.5,242.5C 284.259,227.798 282.926,213.631 276.5,200C 276.836,198.97 277.503,198.47 278.5,198.5 Z"/></g>
<g><path style="opacity:0.769" fill="#4a5c8f" d="M 133.5,213.5 C 133.833,213.5 134.167,213.5 134.5,213.5C 134.5,219.5 134.5,225.5 134.5,231.5C 134.167,231.5 133.833,231.5 133.5,231.5C 132.226,225.508 132.226,219.508 133.5,213.5 Z"/></g>
<g><path style="opacity:0.655" fill="#4c5e91" d="M 181.5,218.5 C 181.5,221.833 181.5,225.167 181.5,228.5C 180.883,228.389 180.383,228.056 180,227.5C 179.333,224.833 179.333,222.167 180,219.5C 180.383,218.944 180.883,218.611 181.5,218.5 Z"/></g>
<g><path style="opacity:0.443" fill="#62729e" d="M 207.5,217.5 C 207.104,220.721 205.771,223.388 203.5,225.5C 204.279,222.455 205.613,219.789 207.5,217.5 Z"/></g>
<g><path style="opacity:0.255" fill="#6776a1" d="M 102.5,217.5 C 101.947,222.806 100.614,227.806 98.5,232.5C 98.7647,227.101 100.098,222.101 102.5,217.5 Z"/></g>
<g><path style="opacity:0.443" fill="#63729e" d="M 210.5,221.5 C 209.464,223.428 208.964,225.428 209,227.5C 211.339,225.922 213.172,226.255 214.5,228.5C 211.833,228.5 209.167,228.5 206.5,228.5C 206.351,227.448 206.517,226.448 207,225.5C 207.74,223.681 208.907,222.348 210.5,221.5 Z"/></g>
<g><path style="opacity:0.345" fill="#526294" d="M 236.5,225.5 C 236.932,228.877 236.265,231.877 234.5,234.5C 233.322,233.001 231.655,232.001 229.5,231.5C 230.325,230.614 231.325,230.281 232.5,230.5C 234.534,229.409 235.868,227.743 236.5,225.5 Z"/></g>
<g><path style="opacity:0.149" fill="#6a78a2" d="M 214.5,228.5 C 216.134,229.207 217.468,230.373 218.5,232C 215.5,233.074 212.5,233.907 209.5,234.5C 208.711,234.217 208.044,233.717 207.5,233C 210.146,232.503 212.813,232.336 215.5,232.5C 215.567,231.041 215.234,229.708 214.5,228.5 Z"/></g>
<g><path style="opacity:0.537" fill="#5f6e9c" d="M 362.5,230.5 C 362.067,233.166 361.567,235.832 361,238.5C 360.617,239.056 360.117,239.389 359.5,239.5C 359.446,236.008 360.446,233.008 362.5,230.5 Z"/></g>
<g><path style="opacity:0.255" fill="#6675a0" d="M 98.5,232.5 C 97.9099,237.169 96.5766,241.503 94.5,245.5C 95.1389,241.473 95.9722,237.473 97,233.5C 97.3826,232.944 97.8826,232.611 98.5,232.5 Z"/></g>
<g><path style="opacity:0.255" fill="#61719d" d="M 209.5,234.5 C 215.576,237.075 219.743,241.408 222,247.5C 222.671,246.748 223.504,246.414 224.5,246.5C 221.78,248.527 218.78,250.193 215.5,251.5C 211.021,252.113 206.688,252.113 202.5,251.5C 200.62,251.771 199.287,251.104 198.5,249.5C 204.13,250.521 209.796,250.687 215.5,250C 216.756,249.583 217.423,248.75 217.5,247.5C 218.649,247.209 219.316,246.376 219.5,245C 219.167,244.167 218.833,243.333 218.5,242.5C 214.863,240.52 211.863,237.854 209.5,234.5 Z"/></g>
<g><path style="opacity:0.443" fill="#6675a0" d="M 203.5,225.5 C 203.67,226.822 203.337,227.989 202.5,229C 197.208,230.162 191.875,231.162 186.5,232C 192.167,232.333 197.833,232.667 203.5,233C 208.397,237.729 213.064,242.562 217.5,247.5C 212.092,243.6 207.092,239.1 202.5,234C 196.252,233.812 190.085,233.312 184,232.5C 183.616,234.197 183.782,235.863 184.5,237.5C 182.166,235.824 181.166,233.491 181.5,230.5C 187.198,230.404 192.865,229.904 198.5,229C 200.323,228.003 201.99,226.836 203.5,225.5 Z"/></g>
<g><path style="opacity:0.537" fill="#586898" d="M 49.5,233.5 C 49.2091,238.379 47.8758,242.712 45.5,246.5C 46.3422,241.898 47.6755,237.565 49.5,233.5 Z"/></g>
<g><path style="opacity:0.149" fill="#6b79a2" d="M 184.5,237.5 C 186.823,240.126 189.157,242.793 191.5,245.5C 187.726,244.062 185.393,241.395 184.5,237.5 Z"/></g>
<g><path style="opacity:0.345" fill="#6a79a2" d="M 232.5,230.5 C 231.325,230.281 230.325,230.614 229.5,231.5C 231.655,232.001 233.322,233.001 234.5,234.5C 232.998,240.004 229.665,244.004 224.5,246.5C 228.245,243.084 231.245,239.084 233.5,234.5C 230.675,233.745 228.009,232.745 225.5,231.5C 226.312,230.007 227.645,229.34 229.5,229.5C 230.726,229.52 231.726,229.853 232.5,230.5 Z"/></g>
<g><path style="opacity:0.443" fill="#63729e" d="M 440.5,285.5 C 440.5,286.5 440.5,287.5 440.5,288.5C 443.394,288.958 445.894,288.291 448,286.5C 451.886,272.4 456.053,258.4 460.5,244.5C 457.966,243.223 455.466,243.223 453,244.5C 451.764,250.144 449.931,255.477 447.5,260.5C 448.429,254.688 449.929,249.021 452,243.5C 455.057,242.549 458.223,242.216 461.5,242.5C 458.156,258.029 453.99,273.363 449,288.5C 446.196,290.344 443.03,291.011 439.5,290.5C 439.216,288.585 439.549,286.919 440.5,285.5 Z"/></g>
<g><path style="opacity:0.443" fill="#64749f" d="M 540.5,246.5 C 540.5,245.5 540.5,244.5 540.5,243.5C 537.833,243.5 535.167,243.5 532.5,243.5C 532.88,245.698 532.213,247.365 530.5,248.5C 531.15,246.565 531.483,244.565 531.5,242.5C 534.833,242.5 538.167,242.5 541.5,242.5C 541.768,244.099 541.434,245.432 540.5,246.5 Z"/></g>
<g><path style="opacity:0.537" fill="#60709c" d="M 611.5,243.5 C 607.5,243.5 603.5,243.5 599.5,243.5C 599.88,245.698 599.213,247.365 597.5,248.5C 597.682,245.906 598.682,243.739 600.5,242C 603.332,241.788 605.998,241.621 608.5,241.5C 609.739,241.942 610.739,242.609 611.5,243.5 Z"/></g>
<g><path style="opacity:0.537" fill="#62719d" d="M 691.5,246.5 C 691.737,245.209 691.404,244.209 690.5,243.5C 680.5,243.5 670.5,243.5 660.5,243.5C 660.167,243.5 659.833,243.5 659.5,243.5C 659.811,242.522 660.478,241.855 661.5,241.5C 670.609,242.615 679.776,242.615 689,241.5C 692.072,242.304 692.905,243.971 691.5,246.5 Z"/></g>
<g><path style="opacity:0.345" fill="#61719d" d="M 315.5,224.5 C 313.214,234.592 310.714,244.592 308,254.5C 306.436,258.261 304.936,261.928 303.5,265.5C 307.007,252.136 310.507,238.802 314,225.5C 314.383,224.944 314.883,224.611 315.5,224.5 Z"/></g>
<g><path style="opacity:1" fill="#041f67" d="M 714.5,243.5 C 722.5,243.5 730.5,243.5 738.5,243.5C 738.5,244.833 738.5,246.167 738.5,247.5C 732.824,247.666 727.157,247.499 721.5,247C 726.864,246.829 732.198,246.329 737.5,245.5C 729.677,244.833 722.01,244.167 714.5,243.5 Z"/></g>
<g><path style="opacity:1" fill="#183071" d="M 424.5,263.5 C 425.423,267.064 425.756,270.731 425.5,274.5C 426.229,279.13 426.563,283.797 426.5,288.5C 423.5,288.5 420.5,288.5 417.5,288.5C 418.011,284.97 417.344,281.804 415.5,279C 408.833,278.333 402.167,278.333 395.5,279C 393.859,280.129 392.859,281.629 392.5,283.5C 392.5,283.833 392.5,284.167 392.5,284.5C 390.554,285.035 389.554,286.368 389.5,288.5C 386.302,289.036 383.635,288.369 381.5,286.5C 383.409,284.351 385.076,282.018 386.5,279.5C 386.328,278.508 386.662,277.842 387.5,277.5C 390.815,274.875 393.149,271.542 394.5,267.5C 396.326,265.853 397.66,263.853 398.5,261.5C 401.937,258.396 404.604,254.729 406.5,250.5C 408.326,248.853 409.66,246.853 410.5,244.5C 414.123,243.242 417.79,243.242 421.5,244.5C 422.854,250.907 423.854,257.24 424.5,263.5 Z M 404.5,265.5 C 406.887,263.087 409.054,260.42 411,257.5C 412.122,255.593 412.955,253.593 413.5,251.5C 414.117,251.389 414.617,251.056 415,250.5C 415.434,257.512 415.934,264.512 416.5,271.5C 411.786,271.827 407.12,271.493 402.5,270.5C 403.456,268.925 404.123,267.258 404.5,265.5 Z"/></g>
<g><path style="opacity:1" fill="#142e70" d="M 440.5,285.5 C 443.889,277.628 446.223,269.295 447.5,260.5C 449.931,255.477 451.764,250.144 453,244.5C 455.466,243.223 457.966,243.223 460.5,244.5C 456.053,258.4 451.886,272.4 448,286.5C 445.894,288.291 443.394,288.958 440.5,288.5C 440.5,287.5 440.5,286.5 440.5,285.5 Z"/></g>
<g><path style="opacity:1" fill="#152e70" d="M 502.5,269.5 C 503.167,269.5 503.5,269.833 503.5,270.5C 503.783,271.289 504.283,271.956 505,272.5C 505.499,277.823 505.666,283.156 505.5,288.5C 503.208,288.756 501.041,288.423 499,287.5C 498.826,282.316 498.326,277.316 497.5,272.5C 497.389,271.883 497.056,271.383 496.5,271C 491.167,270.333 485.833,270.333 480.5,271C 479.663,272.011 479.33,273.178 479.5,274.5C 477.39,278.502 476.057,282.835 475.5,287.5C 475.5,287.833 475.5,288.167 475.5,288.5C 472.833,288.5 470.167,288.5 467.5,288.5C 467.674,286.139 468.007,283.806 468.5,281.5C 468.5,281.167 468.5,280.833 468.5,280.5C 469.117,280.389 469.617,280.056 470,279.5C 470.681,275.779 471.514,272.113 472.5,268.5C 472.5,267.833 472.5,267.167 472.5,266.5C 475.342,261.634 477.009,256.301 477.5,250.5C 477.5,250.167 477.5,249.833 477.5,249.5C 478.771,247.891 479.771,246.058 480.5,244C 489.886,243.147 499.219,243.481 508.5,245C 510.919,246.686 511.919,249.019 511.5,252C 511.65,257.091 509.984,261.424 506.5,265C 504.975,266.009 503.308,266.509 501.5,266.5C 501.263,267.791 501.596,268.791 502.5,269.5 Z M 501.5,259.5 C 500.373,260.122 499.373,260.955 498.5,262C 493.511,262.499 488.511,262.666 483.5,262.5C 483.557,261.391 483.89,260.391 484.5,259.5C 485.563,256.783 486.563,253.949 487.5,251C 492.222,250.223 496.889,250.39 501.5,251.5C 502.449,254.126 502.449,256.792 501.5,259.5 Z"/></g>
<g><path style="opacity:1" fill="#152e70" d="M 540.5,246.5 C 537.716,253.348 535.216,260.348 533,267.5C 531.971,272.144 531.138,276.81 530.5,281.5C 537.395,281.85 544.062,282.85 550.5,284.5C 550.737,285.791 550.404,286.791 549.5,287.5C 539.773,288.139 530.44,287.472 521.5,285.5C 522.219,283.236 522.552,280.903 522.5,278.5C 524.587,274.51 525.92,270.177 526.5,265.5C 526.5,264.833 526.5,264.167 526.5,263.5C 527.117,263.389 527.617,263.056 528,262.5C 528.495,260.527 528.662,258.527 528.5,256.5C 529.738,254.786 530.405,252.786 530.5,250.5C 530.5,249.833 530.5,249.167 530.5,248.5C 532.213,247.365 532.88,245.698 532.5,243.5C 535.167,243.5 537.833,243.5 540.5,243.5C 540.5,244.5 540.5,245.5 540.5,246.5 Z"/></g>
<g><path style="opacity:1" fill="#152e70" d="M 578.5,249.5 C 578.5,249.833 578.5,250.167 578.5,250.5C 576.257,255.904 574.591,261.571 573.5,267.5C 571.975,270.583 570.975,273.916 570.5,277.5C 570.5,277.833 570.5,278.167 570.5,278.5C 568.697,281.39 567.364,284.557 566.5,288C 564.19,288.497 561.857,288.663 559.5,288.5C 559.5,287.5 559.5,286.5 559.5,285.5C 559.5,285.167 559.5,284.833 559.5,284.5C 564.563,271.623 568.729,258.29 572,244.5C 574.381,243.565 576.881,243.232 579.5,243.5C 579.167,245.5 578.833,247.5 578.5,249.5 Z"/></g>
<g><path style="opacity:1" fill="#162f70" d="M 611.5,243.5 C 612.061,248.176 613.394,252.509 615.5,256.5C 615.32,260.286 616.32,263.619 618.5,266.5C 619.451,267.919 619.784,269.585 619.5,271.5C 619.404,275.68 620.571,279.347 623,282.5C 623.791,281.255 624.291,279.922 624.5,278.5C 625.374,275.211 626.041,271.877 626.5,268.5C 626.5,268.167 626.5,267.833 626.5,267.5C 628.432,263.805 629.765,259.805 630.5,255.5C 630.5,255.167 630.5,254.833 630.5,254.5C 632.223,252.22 632.889,249.553 632.5,246.5C 633.404,245.791 633.737,244.791 633.5,243.5C 635.833,243.5 638.167,243.5 640.5,243.5C 640.5,244.5 640.5,245.5 640.5,246.5C 640.5,246.833 640.5,247.167 640.5,247.5C 639.351,247.791 638.684,248.624 638.5,250C 637.923,252.137 637.59,254.304 637.5,256.5C 636.883,256.611 636.383,256.944 636,257.5C 635.174,260.793 634.674,264.126 634.5,267.5C 631.601,273.73 629.601,280.397 628.5,287.5C 624.167,288.833 619.833,288.833 615.5,287.5C 615.946,284.99 615.28,282.99 613.5,281.5C 613.5,281.167 613.5,280.833 613.5,280.5C 613.238,275.112 611.905,270.112 609.5,265.5C 608.987,261.447 608.154,257.447 607,253.5C 606.617,252.944 606.117,252.611 605.5,252.5C 604.833,253.167 604.167,253.833 603.5,254.5C 601.674,259.261 600.341,264.261 599.5,269.5C 597.102,273.403 595.769,277.736 595.5,282.5C 593.926,284.102 593.259,286.102 593.5,288.5C 591.143,288.663 588.81,288.497 586.5,288C 587.669,285.993 588.335,283.827 588.5,281.5C 588.5,280.5 588.5,279.5 588.5,278.5C 590.975,275.749 591.975,272.416 591.5,268.5C 592.931,267.22 593.598,265.553 593.5,263.5C 593.5,263.167 593.5,262.833 593.5,262.5C 595.606,258.509 596.939,254.176 597.5,249.5C 597.5,249.167 597.5,248.833 597.5,248.5C 599.213,247.365 599.88,245.698 599.5,243.5C 603.5,243.5 607.5,243.5 611.5,243.5 Z"/></g>
<g><path style="opacity:0.149" fill="#6978a2" d="M 640.5,246.5 C 640.5,245.5 640.5,244.5 640.5,243.5C 638.167,243.5 635.833,243.5 633.5,243.5C 633.737,244.791 633.404,245.791 632.5,246.5C 632.5,245.167 632.5,243.833 632.5,242.5C 634.819,241.833 637.153,241.666 639.5,242C 641.578,243.27 641.912,244.77 640.5,246.5 Z"/></g>
<g><path style="opacity:1" fill="#142d6f" d="M 659.5,243.5 C 659.833,243.5 660.167,243.5 660.5,243.5C 660.369,244.239 660.536,244.906 661,245.5C 670.667,244.167 680.333,244.167 690,245.5C 690.464,244.906 690.631,244.239 690.5,243.5C 691.404,244.209 691.737,245.209 691.5,246.5C 690.522,246.811 689.855,247.478 689.5,248.5C 681.521,249.332 673.521,249.832 665.5,250C 663.993,253.69 662.993,257.524 662.5,261.5C 668.833,261.5 675.167,261.5 681.5,261.5C 681.5,262.5 681.5,263.5 681.5,264.5C 680.596,265.209 680.263,266.209 680.5,267.5C 673.416,266.874 666.75,267.541 660.5,269.5C 658.431,273.209 657.265,277.209 657,281.5C 664.754,282.317 672.588,282.817 680.5,283C 679.901,284.622 679.234,286.122 678.5,287.5C 668.161,287.666 657.828,287.5 647.5,287C 648.056,286.617 648.389,286.117 648.5,285.5C 649.249,280.755 650.249,276.088 651.5,271.5C 651.5,271.167 651.5,270.833 651.5,270.5C 653.828,266.58 655.161,262.246 655.5,257.5C 657.434,253.112 658.767,248.445 659.5,243.5 Z"/></g>
<g><path style="opacity:1" fill="#031d67" d="M 660.5,243.5 C 670.5,243.5 680.5,243.5 690.5,243.5C 690.631,244.239 690.464,244.906 690,245.5C 680.333,244.167 670.667,244.167 661,245.5C 660.536,244.906 660.369,244.239 660.5,243.5 Z"/></g>
<g><path style="opacity:1" fill="#152e70" d="M 714.5,243.5 C 722.01,244.167 729.677,244.833 737.5,245.5C 732.198,246.329 726.864,246.829 721.5,247C 727.157,247.499 732.824,247.666 738.5,247.5C 731.345,248.329 724.011,248.829 716.5,249C 715.584,249.278 714.918,249.778 714.5,250.5C 714.5,251.167 714.167,251.5 713.5,251.5C 710.782,253.382 710.115,255.715 711.5,258.5C 711.577,259.75 712.244,260.583 713.5,261C 717.821,261.499 722.154,261.666 726.5,261.5C 729.263,261.744 731.429,263.077 733,265.5C 733.607,269.537 733.44,273.537 732.5,277.5C 731.069,278.78 730.402,280.447 730.5,282.5C 729.5,282.833 728.833,283.5 728.5,284.5C 726.072,286.043 723.406,287.043 720.5,287.5C 711.983,287.826 703.65,287.493 695.5,286.5C 695.433,285.041 695.766,283.708 696.5,282.5C 697.822,282.33 698.989,282.663 700,283.5C 706.266,282.851 712.433,282.185 718.5,281.5C 720.027,281.573 721.027,280.906 721.5,279.5C 723.335,278.878 724.502,277.544 725,275.5C 725.769,272.901 725.602,270.401 724.5,268C 717.381,267.894 710.381,267.06 703.5,265.5C 703.54,260.807 703.873,256.141 704.5,251.5C 704.328,250.508 704.662,249.842 705.5,249.5C 706.488,248.205 707.488,246.872 708.5,245.5C 710.421,244.637 712.421,243.971 714.5,243.5 Z"/></g>
<g><path style="opacity:0.537" fill="#5a6a99" d="M 133.5,231.5 C 133.833,231.5 134.167,231.5 134.5,231.5C 135.842,236.712 137.509,241.878 139.5,247C 139.43,247.765 139.097,248.265 138.5,248.5C 135.966,243.095 134.299,237.429 133.5,231.5 Z"/></g>
<g><path style="opacity:0.655" fill="#5f6f9c" d="M 191.5,245.5 C 193.882,246.351 195.882,247.684 197.5,249.5C 194.733,249.13 192.733,247.796 191.5,245.5 Z"/></g>
<g><path style="opacity:0.443" fill="#65749f" d="M 410.5,244.5 C 409.66,246.853 408.326,248.853 406.5,250.5C 406.845,247.802 408.178,245.802 410.5,244.5 Z"/></g>
<g><path style="opacity:0.149" fill="#6d7ba4" d="M 94.5,245.5 C 108.638,247.161 122.971,248.161 137.5,248.5C 122.833,248.5 108.167,248.5 93.5,248.5C 93.2627,247.209 93.596,246.209 94.5,245.5 Z"/></g>
<g><path style="opacity:0.255" fill="#64739f" d="M 359.5,240.5 C 358.91,245.169 357.577,249.503 355.5,253.5C 356.329,249.514 357.163,245.514 358,241.5C 358.383,240.944 358.883,240.611 359.5,240.5 Z"/></g>
<g><path style="opacity:0.255" fill="#63729e" d="M 578.5,249.5 C 578.833,247.5 579.167,245.5 579.5,243.5C 576.881,243.232 574.381,243.565 572,244.5C 568.729,258.29 564.563,271.623 559.5,284.5C 563.142,270.799 566.975,257.133 571,243.5C 574.608,242.051 578.108,242.217 581.5,244C 580.771,246.058 579.771,247.891 578.5,249.5 Z"/></g>
<g><path style="opacity:0.443" fill="#5e6e9b" d="M 708.5,245.5 C 707.488,246.872 706.488,248.205 705.5,249.5C 705.088,247.027 706.088,245.694 708.5,245.5 Z"/></g>
<g><path style="opacity:0.345" fill="#6675a0" d="M 714.5,250.5 C 714.918,249.778 715.584,249.278 716.5,249C 724.011,248.829 731.345,248.329 738.5,247.5C 738.5,246.167 738.5,244.833 738.5,243.5C 730.5,243.5 722.5,243.5 714.5,243.5C 712.421,243.971 710.421,244.637 708.5,245.5C 708.47,244.503 708.97,243.836 710,243.5C 713.056,242.923 716.056,242.257 719,241.5C 725.667,242.833 732.333,242.833 739,241.5C 740.732,244.917 740.065,247.917 737,250.5C 729.92,249.913 722.42,249.913 714.5,250.5 Z"/></g>
<g><path style="opacity:0.255" fill="#6575a0" d="M 501.5,259.5 C 502.449,256.792 502.449,254.126 501.5,251.5C 496.889,250.39 492.222,250.223 487.5,251C 486.563,253.949 485.563,256.783 484.5,259.5C 484.5,258.5 484.5,257.5 484.5,256.5C 484.665,254.173 485.331,252.007 486.5,250C 491.833,249.333 497.167,249.333 502.5,250C 503.61,252.737 503.777,255.571 503,258.5C 502.617,259.056 502.117,259.389 501.5,259.5 Z"/></g>
<g><path style="opacity:0.255" fill="#6a79a3" d="M 691.5,246.5 C 691.67,247.822 691.337,248.989 690.5,250C 682.255,250.183 674.088,250.683 666,251.5C 665.394,254.43 664.56,257.263 663.5,260C 669.833,260.333 676.167,260.667 682.5,261C 682.833,261.333 683.167,261.667 683.5,262C 682.901,263.622 682.234,265.122 681.5,266.5C 681.5,265.833 681.5,265.167 681.5,264.5C 681.5,263.5 681.5,262.5 681.5,261.5C 675.167,261.5 668.833,261.5 662.5,261.5C 662.993,257.524 663.993,253.69 665.5,250C 673.521,249.832 681.521,249.332 689.5,248.5C 689.855,247.478 690.522,246.811 691.5,246.5 Z"/></g>
<g><path style="opacity:0.149" fill="#6978a2" d="M 424.5,263.5 C 423.854,257.24 422.854,250.907 421.5,244.5C 417.79,243.242 414.123,243.242 410.5,244.5C 411.607,242.069 413.607,241.069 416.5,241.5C 418.926,241.404 421.093,242.07 423,243.5C 424.21,250.112 424.71,256.778 424.5,263.5 Z"/></g>
<g><path style="opacity:0.149" fill="#6f7da5" d="M 659.5,243.5 C 658.767,248.445 657.434,253.112 655.5,257.5C 655.923,252.46 657.256,247.793 659.5,243.5 Z"/></g>
<g><path style="opacity:0.149" fill="#6d7ba4" d="M 279.5,245.5 C 279.834,248.491 278.834,250.824 276.5,252.5C 276.935,249.843 277.935,247.509 279.5,245.5 Z"/></g>
<g><path style="opacity:0.345" fill="#6776a1" d="M 611.5,243.5 C 614.075,247.301 615.408,251.635 615.5,256.5C 613.394,252.509 612.061,248.176 611.5,243.5 Z"/></g>
<g><path style="opacity:0.996" fill="#324781" d="M 202.5,251.5 C 206.688,252.113 211.021,252.113 215.5,251.5C 211.137,254.09 206.804,254.09 202.5,251.5 Z"/></g>
<g><path style="opacity:0.537" fill="#526494" d="M 632.5,246.5 C 632.889,249.553 632.223,252.22 630.5,254.5C 630.802,251.627 631.469,248.961 632.5,246.5 Z"/></g>
<g><path style="opacity:0.149" fill="#727fa7" d="M 530.5,250.5 C 530.405,252.786 529.738,254.786 528.5,256.5C 528.259,254.102 528.926,252.102 530.5,250.5 Z"/></g>
<g><path style="opacity:0.345" fill="#6c7aa3" d="M 640.5,247.5 C 640.117,250.811 639.117,253.811 637.5,256.5C 637.59,254.304 637.923,252.137 638.5,250C 638.684,248.624 639.351,247.791 640.5,247.5 Z"/></g>
<g><path style="opacity:0.255" fill="#6a79a2" d="M 597.5,249.5 C 596.939,254.176 595.606,258.509 593.5,262.5C 594.08,257.823 595.413,253.49 597.5,249.5 Z"/></g>
<g><path style="opacity:0.537" fill="#5a6998" d="M 406.5,250.5 C 404.604,254.729 401.937,258.396 398.5,261.5C 400.457,257.225 403.124,253.559 406.5,250.5 Z"/></g>
<g><path style="opacity:0.149" fill="#6877a1" d="M 413.5,251.5 C 412.955,253.593 412.122,255.593 411,257.5C 409.054,260.42 406.887,263.087 404.5,265.5C 406.498,260.167 409.498,255.5 413.5,251.5 Z"/></g>
<g><path style="opacity:0.255" fill="#63739f" d="M 578.5,250.5 C 577.809,256.563 576.142,262.229 573.5,267.5C 574.591,261.571 576.257,255.904 578.5,250.5 Z"/></g>
<g><path style="opacity:0.769" fill="#586998" d="M 704.5,251.5 C 703.873,256.141 703.54,260.807 703.5,265.5C 702.191,264.376 701.525,262.876 701.5,261C 701.98,257.552 702.98,254.385 704.5,251.5 Z"/></g>
<g><path style="opacity:0.255" fill="#6776a0" d="M 275.5,254.5 C 275.25,256.674 274.25,258.341 272.5,259.5C 272.75,257.326 273.75,255.659 275.5,254.5 Z"/></g>
<g><path style="opacity:0.255" fill="#64739f" d="M 605.5,252.5 C 606.117,252.611 606.617,252.944 607,253.5C 608.154,257.447 608.987,261.447 609.5,265.5C 607.423,261.503 606.09,257.169 605.5,252.5 Z"/></g>
<g><path style="opacity:0.655" fill="#4e6092" d="M 713.5,251.5 C 712.833,253.833 712.167,256.167 711.5,258.5C 710.115,255.715 710.782,253.382 713.5,251.5 Z"/></g>
<g><path style="opacity:0.443" fill="#61719d" d="M 355.5,255.5 C 355.204,257.403 354.537,259.07 353.5,260.5C 353.077,258.219 353.744,256.552 355.5,255.5 Z"/></g>
<g><path style="opacity:0.443" fill="#62729e" d="M 528.5,256.5 C 528.662,258.527 528.495,260.527 528,262.5C 527.617,263.056 527.117,263.389 526.5,263.5C 526.927,260.99 527.593,258.657 528.5,256.5 Z"/></g>
<g><path style="opacity:0.655" fill="#536395" d="M 615.5,256.5 C 617.025,259.583 618.025,262.916 618.5,266.5C 616.32,263.619 615.32,260.286 615.5,256.5 Z"/></g>
<g><path style="opacity:0.255" fill="#6a79a3" d="M 630.5,255.5 C 629.765,259.805 628.432,263.805 626.5,267.5C 627.172,263.812 628.005,260.145 629,256.5C 629.383,255.944 629.883,255.611 630.5,255.5 Z"/></g>
<g><path style="opacity:0.149" fill="#61709d" d="M 711.5,258.5 C 716.602,259.121 721.602,259.787 726.5,260.5C 726.5,260.833 726.5,261.167 726.5,261.5C 722.154,261.666 717.821,261.499 713.5,261C 712.244,260.583 711.577,259.75 711.5,258.5 Z"/></g>
<g><path style="opacity:0.345" fill="#5c6b9a" d="M 637.5,256.5 C 636.945,260.397 635.945,264.063 634.5,267.5C 634.674,264.126 635.174,260.793 636,257.5C 636.383,256.944 636.883,256.611 637.5,256.5 Z"/></g>
<g><path style="opacity:0.345" fill="#6574a0" d="M 477.5,250.5 C 477.009,256.301 475.342,261.634 472.5,266.5C 473.637,262.583 474.47,258.583 475,254.5C 475.608,252.934 476.442,251.6 477.5,250.5 Z"/></g>
<g><path style="opacity:0.149" fill="#6876a1" d="M 353.5,260.5 C 351.773,268.753 349.44,276.753 346.5,284.5C 347.651,276.057 349.985,268.057 353.5,260.5 Z"/></g>
<g><path style="opacity:0.071" fill="#727fa6" d="M 501.5,259.5 C 501.167,261.833 499.833,263.167 497.5,263.5C 492.637,263.819 487.97,263.486 483.5,262.5C 488.511,262.666 493.511,262.499 498.5,262C 499.373,260.955 500.373,260.122 501.5,259.5 Z"/></g>
<g><path style="opacity:0.149" fill="#6776a1" d="M 603.5,254.5 C 603.238,259.888 601.905,264.888 599.5,269.5C 600.341,264.261 601.674,259.261 603.5,254.5 Z"/></g>
<g><path style="opacity:0.345" fill="#6776a1" d="M 655.5,257.5 C 655.161,262.246 653.828,266.58 651.5,270.5C 651.769,265.736 653.102,261.403 655.5,257.5 Z"/></g>
<g><path style="opacity:0.071" fill="#6c7aa3" d="M 270.5,262.5 C 270.5,263.833 269.833,264.5 268.5,264.5C 268.833,263.5 269.5,262.833 270.5,262.5 Z"/></g>
<g><path style="opacity:0.537" fill="#495c8f" d="M 484.5,256.5 C 484.5,257.5 484.5,258.5 484.5,259.5C 483.89,260.391 483.557,261.391 483.5,262.5C 487.97,263.486 492.637,263.819 497.5,263.5C 492.695,264.487 487.695,264.821 482.5,264.5C 482.294,261.505 482.96,258.838 484.5,256.5 Z"/></g>
<g><path style="opacity:0.149" fill="#62729e" d="M 502.5,269.5 C 501.596,268.791 501.263,267.791 501.5,266.5C 503.308,266.509 504.975,266.009 506.5,265C 509.984,261.424 511.65,257.091 511.5,252C 511.919,249.019 510.919,246.686 508.5,245C 499.219,243.481 489.886,243.147 480.5,244C 479.771,246.058 478.771,247.891 477.5,249.5C 477.665,247.173 478.331,245.007 479.5,243C 489.574,242.077 499.574,242.41 509.5,244C 513.833,248.536 514.667,253.702 512,259.5C 511.667,260.5 511.333,261.5 511,262.5C 508.291,265.232 505.458,267.565 502.5,269.5 Z"/></g>
<g><path style="opacity:0.071" fill="#7784aa" d="M 593.5,263.5 C 593.598,265.553 592.931,267.22 591.5,268.5C 591.402,266.447 592.069,264.78 593.5,263.5 Z"/></g>
<g><path style="opacity:0.345" fill="#606f9c" d="M 45.5,247.5 C 42.5542,259.994 39.2208,272.328 35.5,284.5C 35.5,285.167 35.5,285.833 35.5,286.5C 34.8333,286.5 34.1667,286.5 33.5,286.5C 37.0487,273.29 41.0487,260.29 45.5,247.5 Z"/></g>
<g><path style="opacity:0.255" fill="#6776a1" d="M 268.5,265.5 C 268.167,266.5 267.5,267.167 266.5,267.5C 266.5,266.167 267.167,265.5 268.5,265.5 Z"/></g>
<g><path style="opacity:0.345" fill="#64739f" d="M 398.5,261.5 C 397.66,263.853 396.326,265.853 394.5,267.5C 394.845,264.802 396.178,262.802 398.5,261.5 Z"/></g>
<g><path style="opacity:0.149" fill="#6675a0" d="M 526.5,265.5 C 525.92,270.177 524.587,274.51 522.5,278.5C 523.08,273.823 524.413,269.49 526.5,265.5 Z"/></g>
<g><path style="opacity:0.698" fill="#506093" d="M 681.5,264.5 C 681.5,265.167 681.5,265.833 681.5,266.5C 681.539,267.756 681.039,268.756 680,269.5C 673.689,268.79 667.189,268.79 660.5,269.5C 666.75,267.541 673.416,266.874 680.5,267.5C 680.263,266.209 680.596,265.209 681.5,264.5 Z"/></g>
<g><path style="opacity:0.443" fill="#6776a0" d="M 303.5,265.5 C 302.432,271.785 300.765,277.785 298.5,283.5C 299.253,277.142 300.92,271.142 303.5,265.5 Z"/></g>
<g><path style="opacity:0.071" fill="#7380a7" d="M 404.5,265.5 C 404.123,267.258 403.456,268.925 402.5,270.5C 407.12,271.493 411.786,271.827 416.5,271.5C 415.934,264.512 415.434,257.512 415,250.5C 414.617,251.056 414.117,251.389 413.5,251.5C 413.415,250.005 414.081,249.005 415.5,248.5C 416.807,256.465 417.307,264.465 417,272.5C 411.593,273.473 406.093,273.807 400.5,273.5C 400.794,270.246 402.127,267.579 404.5,265.5 Z"/></g>
<g><path style="opacity:0.149" fill="#6877a1" d="M 472.5,268.5 C 471.514,272.113 470.681,275.779 470,279.5C 469.617,280.056 469.117,280.389 468.5,280.5C 469.266,276.837 470.1,273.171 471,269.5C 471.383,268.944 471.883,268.611 472.5,268.5 Z"/></g>
<g><path style="opacity:0.149" fill="#6c7aa3" d="M 573.5,267.5 C 573.712,271.345 572.712,274.679 570.5,277.5C 570.975,273.916 571.975,270.583 573.5,267.5 Z"/></g>
<g><path style="opacity:0.149" fill="#64739f" d="M 263.5,270.5 C 262.5,272.167 261.167,273.5 259.5,274.5C 259.833,272.167 261.167,270.833 263.5,270.5 Z"/></g>
<g><path style="opacity:0.149" fill="#64739e" d="M 497.5,272.5 C 491.208,271.947 485.208,272.614 479.5,274.5C 479.33,273.178 479.663,272.011 480.5,271C 485.833,270.333 491.167,270.333 496.5,271C 497.056,271.383 497.389,271.883 497.5,272.5 Z"/></g>
<g><path style="opacity:0.149" fill="#6f7da5" d="M 726.5,261.5 C 726.5,261.167 726.5,260.833 726.5,260.5C 729.785,260.269 732.285,261.603 734,264.5C 734.667,268.167 734.667,271.833 734,275.5C 733.722,276.416 733.222,277.082 732.5,277.5C 733.44,273.537 733.607,269.537 733,265.5C 731.429,263.077 729.263,261.744 726.5,261.5 Z"/></g>
<g><path style="opacity:0.443" fill="#63729e" d="M 394.5,267.5 C 393.149,271.542 390.815,274.875 387.5,277.5C 389.344,273.808 391.677,270.475 394.5,267.5 Z"/></g>
<g><path style="opacity:0.443" fill="#62729e" d="M 626.5,268.5 C 626.041,271.877 625.374,275.211 624.5,278.5C 622.821,278.715 621.821,278.048 621.5,276.5C 622.117,276.611 622.617,276.944 623,277.5C 623.505,274.135 624.672,271.135 626.5,268.5 Z"/></g>
<g><path style="opacity:0.345" fill="#61719d" d="M 591.5,268.5 C 591.975,272.416 590.975,275.749 588.5,278.5C 589.511,275.06 590.511,271.726 591.5,268.5 Z"/></g>
<g><path style="opacity:0.255" fill="#6776a1" d="M 609.5,265.5 C 611.905,270.112 613.238,275.112 613.5,280.5C 611.409,275.809 610.076,270.809 609.5,265.5 Z"/></g>
<g><path style="opacity:0.071" fill="#7885aa" d="M 259.5,274.5 C 259.027,275.906 258.027,276.573 256.5,276.5C 256.973,275.094 257.973,274.427 259.5,274.5 Z"/></g>
<g><path style="opacity:0.443" fill="#6675a0" d="M 599.5,269.5 C 598.92,274.177 597.587,278.51 595.5,282.5C 595.769,277.736 597.102,273.403 599.5,269.5 Z"/></g>
<g><path style="opacity:0.149" fill="#61709d" d="M 447.5,260.5 C 446.223,269.295 443.889,277.628 440.5,285.5C 442.257,276.909 444.591,268.575 447.5,260.5 Z"/></g>
<g><path style="opacity:0.149" fill="#64739f" d="M 651.5,271.5 C 650.249,276.088 649.249,280.755 648.5,285.5C 648.167,285.5 647.833,285.5 647.5,285.5C 647.61,280.378 648.944,275.712 651.5,271.5 Z"/></g>
<g><path style="opacity:0.255" fill="#5e6e9b" d="M 703.5,265.5 C 710.381,267.06 717.381,267.894 724.5,268C 725.602,270.401 725.769,272.901 725,275.5C 724.502,277.544 723.335,278.878 721.5,279.5C 723.881,276.058 724.548,272.391 723.5,268.5C 718.489,268.666 713.489,268.499 708.5,268C 706.347,267.901 704.681,267.067 703.5,265.5 Z"/></g>
<g><path style="opacity:0.255" fill="#62729e" d="M 254.5,278.5 C 252.151,280.341 249.485,281.674 246.5,282.5C 248.579,280.127 251.246,278.794 254.5,278.5 Z"/></g>
<g><path style="opacity:0.443" fill="#6a79a2" d="M 479.5,274.5 C 478.939,279.176 477.606,283.509 475.5,287.5C 476.057,282.835 477.39,278.502 479.5,274.5 Z"/></g>
<g><path style="opacity:0.983" fill="#354982" d="M 619.5,271.5 C 620.537,272.93 621.204,274.597 621.5,276.5C 621.821,278.048 622.821,278.715 624.5,278.5C 624.291,279.922 623.791,281.255 623,282.5C 620.571,279.347 619.404,275.68 619.5,271.5 Z"/></g>
<g><path style="opacity:0.255" fill="#64739f" d="M 634.5,267.5 C 633.119,274.452 631.119,281.119 628.5,287.5C 629.601,280.397 631.601,273.73 634.5,267.5 Z"/></g>
<g><path style="opacity:0.443" fill="#5e6e9b" d="M 732.5,277.5 C 732.88,279.698 732.213,281.365 730.5,282.5C 730.402,280.447 731.069,278.78 732.5,277.5 Z"/></g>
<g><path style="opacity:0.149" fill="#6d7ba4" d="M 721.5,279.5 C 721.027,280.906 720.027,281.573 718.5,281.5C 711.167,281.5 703.833,281.5 696.5,281.5C 704.703,280.776 713.036,280.11 721.5,279.5 Z"/></g>
<g><path style="opacity:0.769" fill="#334983" d="M 696.5,282.5 C 696.5,282.167 696.5,281.833 696.5,281.5C 703.833,281.5 711.167,281.5 718.5,281.5C 712.433,282.185 706.266,282.851 700,283.5C 698.989,282.663 697.822,282.33 696.5,282.5 Z"/></g>
<g><path style="opacity:0.443" fill="#63729e" d="M 386.5,279.5 C 385.076,282.018 383.409,284.351 381.5,286.5C 381.956,283.237 383.623,280.904 386.5,279.5 Z"/></g>
<g><path style="opacity:0.255" fill="#6a79a3" d="M 246.5,282.5 C 245.22,283.931 243.553,284.598 241.5,284.5C 242.78,283.069 244.447,282.402 246.5,282.5 Z"/></g>
<g><path style="opacity:0.655" fill="#546596" d="M 613.5,281.5 C 615.28,282.99 615.946,284.99 615.5,287.5C 614.542,285.698 613.875,283.698 613.5,281.5 Z"/></g>
<g><path style="opacity:0.071" fill="#717ea6" d="M 730.5,282.5 C 730.5,283.833 729.833,284.5 728.5,284.5C 728.833,283.5 729.5,282.833 730.5,282.5 Z"/></g>
<g><path style="opacity:1" fill="#0c286c" d="M 35.5,284.5 C 78.2825,286.32 121.282,287.154 164.5,287C 153.505,287.5 142.505,287.667 131.5,287.5C 99.329,287.832 67.329,287.498 35.5,286.5C 35.5,285.833 35.5,285.167 35.5,284.5 Z"/></g>
<g><path style="opacity:0.8" fill="#3a4d86" d="M 33.5,286.5 C 34.1667,286.5 34.8333,286.5 35.5,286.5C 67.329,287.498 99.329,287.832 131.5,287.5C 131.5,287.833 131.5,288.167 131.5,288.5C 130.833,288.5 130.5,288.833 130.5,289.5C 98.1667,289.5 65.8333,289.5 33.5,289.5C 33.5,288.5 33.5,287.5 33.5,286.5 Z"/></g>
<g><path style="opacity:0.149" fill="#6978a2" d="M 238.5,285.5 C 237.653,286.966 236.32,287.8 234.5,288C 231.146,288.455 227.813,288.955 224.5,289.5C 224.5,289.167 224.5,288.833 224.5,288.5C 229.138,287.503 233.805,286.503 238.5,285.5 Z"/></g>
<g><path style="opacity:0.149" fill="#6e7ca4" d="M 392.5,284.5 C 391.974,286.23 390.974,287.564 389.5,288.5C 389.554,286.368 390.554,285.035 392.5,284.5 Z"/></g>
<g><path style="opacity:0.255" fill="#6a79a3" d="M 468.5,281.5 C 468.007,283.806 467.674,286.139 467.5,288.5C 470.167,288.5 472.833,288.5 475.5,288.5C 472.713,289.477 469.713,289.81 466.5,289.5C 466.337,287.143 466.503,284.81 467,282.5C 467.383,281.944 467.883,281.611 468.5,281.5 Z"/></g>
<g><path style="opacity:0.149" fill="#64739f" d="M 503.5,270.5 C 504.496,270.414 505.329,270.748 506,271.5C 506.601,273.137 507.101,274.803 507.5,276.5C 506.625,280.787 506.292,285.121 506.5,289.5C 503.552,289.777 500.719,289.444 498,288.5C 497.501,283.177 497.334,277.844 497.5,272.5C 498.326,277.316 498.826,282.316 499,287.5C 501.041,288.423 503.208,288.756 505.5,288.5C 505.666,283.156 505.499,277.823 505,272.5C 504.283,271.956 503.783,271.289 503.5,270.5 Z"/></g>
<g><path style="opacity:0.698" fill="#324883" d="M 647.5,285.5 C 647.833,285.5 648.167,285.5 648.5,285.5C 648.389,286.117 648.056,286.617 647.5,287C 657.828,287.5 668.161,287.666 678.5,287.5C 668.013,288.494 657.346,288.828 646.5,288.5C 646.263,287.209 646.596,286.209 647.5,285.5 Z"/></g>
<g><path style="opacity:0.698" fill="#364b85" d="M 695.5,286.5 C 703.65,287.493 711.983,287.826 720.5,287.5C 720.5,287.833 720.5,288.167 720.5,288.5C 711.808,288.831 703.141,288.498 694.5,287.5C 694.624,286.893 694.957,286.56 695.5,286.5 Z"/></g>
<g><path style="opacity:0.255" fill="#6a79a2" d="M 728.5,284.5 C 726.685,287.407 724.019,288.741 720.5,288.5C 720.5,288.167 720.5,287.833 720.5,287.5C 723.406,287.043 726.072,286.043 728.5,284.5 Z"/></g>
<g><path style="opacity:0.655" fill="#576797" d="M 130.5,289.5 C 130.5,288.833 130.833,288.5 131.5,288.5C 162.5,288.5 193.5,288.5 224.5,288.5C 224.5,288.833 224.5,289.167 224.5,289.5C 192.524,290.489 161.191,290.489 130.5,289.5 Z"/></g>
<g><path style="opacity:0.255" fill="#6978a2" d="M 298.5,283.5 C 298.579,284.93 298.246,286.264 297.5,287.5C 313.167,288.833 328.833,288.833 344.5,287.5C 344.855,286.478 345.522,285.811 346.5,285.5C 346.461,286.583 346.127,287.583 345.5,288.5C 329.18,289.499 312.847,289.833 296.5,289.5C 296.054,286.99 296.72,284.99 298.5,283.5 Z"/></g>
<g><path style="opacity:0.255" fill="#6978a2" d="M 381.5,286.5 C 383.635,288.369 386.302,289.036 389.5,288.5C 386.313,289.806 382.98,289.806 379.5,288.5C 379.855,287.478 380.522,286.811 381.5,286.5 Z"/></g>
<g><path style="opacity:0.255" fill="#6d7ba4" d="M 425.5,274.5 C 426.268,275.263 426.768,276.263 427,277.5C 427.499,281.486 427.666,285.486 427.5,289.5C 423.833,289.5 420.167,289.5 416.5,289.5C 416.5,286.5 416.5,283.5 416.5,280.5C 409.492,280.334 402.492,280.5 395.5,281C 394.627,282.045 393.627,282.878 392.5,283.5C 392.859,281.629 393.859,280.129 395.5,279C 402.167,278.333 408.833,278.333 415.5,279C 417.344,281.804 418.011,284.97 417.5,288.5C 420.5,288.5 423.5,288.5 426.5,288.5C 426.563,283.797 426.229,279.13 425.5,274.5 Z"/></g>
<g><path style="opacity:0.255" fill="#6b7aa3" d="M 540.5,246.5 C 537.974,257.603 534.974,268.603 531.5,279.5C 538.468,280.497 545.468,280.83 552.5,280.5C 552.658,283.545 551.991,286.379 550.5,289C 540.172,289.5 529.839,289.666 519.5,289.5C 519.517,285.466 520.517,281.799 522.5,278.5C 522.552,280.903 522.219,283.236 521.5,285.5C 520.596,286.209 520.263,287.209 520.5,288.5C 530.348,288.827 540.014,288.494 549.5,287.5C 550.404,286.791 550.737,285.791 550.5,284.5C 551.404,283.791 551.737,282.791 551.5,281.5C 544.5,281.5 537.5,281.5 530.5,281.5C 531.138,276.81 531.971,272.144 533,267.5C 535.216,260.348 537.716,253.348 540.5,246.5 Z"/></g>
<g><path style="opacity:0.698" fill="#334984" d="M 521.5,285.5 C 530.44,287.472 539.773,288.139 549.5,287.5C 540.014,288.494 530.348,288.827 520.5,288.5C 520.263,287.209 520.596,286.209 521.5,285.5 Z"/></g>
<g><path style="opacity:0.769" fill="#354b84" d="M 530.5,281.5 C 537.5,281.5 544.5,281.5 551.5,281.5C 551.737,282.791 551.404,283.791 550.5,284.5C 544.062,282.85 537.395,281.85 530.5,281.5 Z"/></g>
<g><path style="opacity:0.255" fill="#6978a2" d="M 588.5,281.5 C 588.335,283.827 587.669,285.993 586.5,288C 588.81,288.497 591.143,288.663 593.5,288.5C 593.259,286.102 593.926,284.102 595.5,282.5C 595.007,284.806 594.674,287.139 594.5,289.5C 591.5,289.5 588.5,289.5 585.5,289.5C 585.603,286.364 586.603,283.698 588.5,281.5 Z"/></g>
<g><path style="opacity:0.255" fill="#6b7aa4" d="M 615.5,287.5 C 619.833,288.833 624.167,288.833 628.5,287.5C 626.777,288.8 624.61,289.467 622,289.5C 619.39,289.467 617.223,288.8 615.5,287.5 Z"/></g>
<g><path style="opacity:0.255" fill="#6978a2" d="M 660.5,269.5 C 660.655,273.388 659.655,276.888 657.5,280C 658.416,280.374 659.25,280.874 660,281.5C 666.897,281.368 674.064,281.035 681.5,280.5C 681.38,283.48 680.713,286.313 679.5,289C 668.326,289.826 657.326,289.659 646.5,288.5C 657.346,288.828 668.013,288.494 678.5,287.5C 679.234,286.122 679.901,284.622 680.5,283C 672.588,282.817 664.754,282.317 657,281.5C 657.265,277.209 658.431,273.209 660.5,269.5 Z"/></g>
<g><path style="opacity:0.255" fill="#6c7ba4" d="M 696.5,281.5 C 696.5,281.833 696.5,282.167 696.5,282.5C 695.766,283.708 695.433,285.041 695.5,286.5C 694.957,286.56 694.624,286.893 694.5,287.5C 703.141,288.498 711.808,288.831 720.5,288.5C 711.682,289.493 702.682,289.827 693.5,289.5C 693.345,286.284 694.345,283.617 696.5,281.5 Z"/></g>
<g><path style="opacity:0.149" fill="#6675a0" d="M 570.5,278.5 C 570.281,282.378 569.281,286.044 567.5,289.5C 564.554,290.655 561.554,290.821 558.5,290C 557.447,288.251 557.78,286.751 559.5,285.5C 559.5,286.5 559.5,287.5 559.5,288.5C 561.857,288.663 564.19,288.497 566.5,288C 567.364,284.557 568.697,281.39 570.5,278.5 Z"/></g>
</svg>
