<?xml version="1.0" encoding="UTF-8"?>
<!DOCTYPE svg PUBLIC "-//W3C//DTD SVG 1.1//EN" "http://www.w3.org/Graphics/SVG/1.1/DTD/svg11.dtd">
<svg xmlns="http://www.w3.org/2000/svg" version="1.1" width="2800px" height="1575px" style="shape-rendering:geometricPrecision; text-rendering:geometricPrecision; image-rendering:optimizeQuality; fill-rule:evenodd; clip-rule:evenodd" xmlns:xlink="http://www.w3.org/1999/xlink">
<g><path style="opacity:1" fill="#0e3790" d="M 136.5,559.5 C 275.167,559.333 413.834,559.5 552.5,560C 553.931,560.465 555.097,561.299 556,562.5C 557.663,702.42 557.997,842.42 557,982.5C 555.471,983.729 554.304,985.229 553.5,987C 483.914,988.164 414.248,988.664 344.5,988.5C 275.5,988.333 206.5,988.167 137.5,988C 134.352,986.918 132.186,984.751 131,981.5C 130.333,842.833 130.333,704.167 131,565.5C 132.36,562.977 134.193,560.977 136.5,559.5 Z"/></g>
<g><path style="opacity:1" fill="#000001" d="M 707.5,705.5 C 722.732,705.872 737.732,707.872 752.5,711.5C 752.666,718.175 752.5,724.842 752,731.5C 734.986,723.363 717.153,720.53 698.5,723C 686.833,726.492 680.5,734.325 679.5,746.5C 680.704,755.526 684.704,763.026 691.5,769C 705.185,776.843 719.185,784.177 733.5,791C 762.622,807.532 770.955,831.365 758.5,862.5C 753.992,868.172 749.325,873.672 744.5,879C 735.336,884.721 725.336,888.055 714.5,889C 705.167,889.667 695.833,889.667 686.5,889C 677.747,887.478 669.08,885.644 660.5,883.5C 660.334,875.493 660.5,867.493 661,859.5C 674.839,866.46 689.506,870.46 705,871.5C 714.993,871.257 723.993,868.257 732,862.5C 740.524,851.495 741.524,839.828 735,827.5C 727.601,820.683 720.101,814.016 712.5,807.5C 698.889,801.363 685.889,794.196 673.5,786C 659.796,772.518 655.296,756.352 660,737.5C 663.564,724.867 671.397,716.034 683.5,711C 691.448,708.314 699.448,706.481 707.5,705.5 Z"/></g>
<g><path style="opacity:1" fill="#000001" d="M 1200.5,705.5 C 1207.83,705.5 1215.17,705.5 1222.5,705.5C 1222.5,766.167 1222.5,826.833 1222.5,887.5C 1215.16,887.666 1207.83,887.5 1200.5,887C 1199.85,880.222 1199.18,873.389 1198.5,866.5C 1191.84,881.973 1180,889.64 1163,889.5C 1148.58,890.039 1137.41,884.372 1129.5,872.5C 1123.49,862.303 1119.99,851.303 1119,839.5C 1115.63,816.716 1118.96,795.05 1129,774.5C 1133.32,769.018 1138.15,764.018 1143.5,759.5C 1157.45,751.891 1171.45,751.724 1185.5,759C 1190.74,763.41 1195.08,768.577 1198.5,774.5C 1199.18,751.435 1199.84,728.435 1200.5,705.5 Z M 1164.5,769.5 C 1177.48,768.909 1186.64,774.575 1192,786.5C 1202.18,810.303 1201.85,833.97 1191,857.5C 1182.63,871.847 1171.13,875.68 1156.5,869C 1150,863.329 1146.17,856.162 1145,847.5C 1141.55,826.741 1142.72,806.241 1148.5,786C 1152.05,778.615 1157.39,773.115 1164.5,769.5 Z"/></g>
<g><path style="opacity:1" fill="#000001" d="M 1246.5,705.5 C 1254.17,705.5 1261.83,705.5 1269.5,705.5C 1269.5,713.833 1269.5,722.167 1269.5,730.5C 1261.91,730.814 1254.41,730.481 1247,729.5C 1246.5,721.507 1246.33,713.507 1246.5,705.5 Z"/></g>
<g><path style="opacity:1" fill="#000002" d="M 1635.5,705.5 C 1642.83,705.5 1650.17,705.5 1657.5,705.5C 1657.67,713.507 1657.5,721.507 1657,729.5C 1649.92,730.48 1642.75,730.813 1635.5,730.5C 1635.5,722.167 1635.5,713.833 1635.5,705.5 Z"/></g>
<g><path style="opacity:1" fill="#000001" d="M 2034.5,705.5 C 2043.6,704.88 2052.43,705.546 2061,707.5C 2081.38,766.975 2101.55,826.475 2121.5,886C 2112.84,886.5 2104.17,886.666 2095.5,886.5C 2091.3,868.735 2085.8,851.401 2079,834.5C 2056.9,833.174 2034.73,833.174 2012.5,834.5C 2006.76,851.378 2001.43,868.378 1996.5,885.5C 1989.17,886.833 1981.83,886.833 1974.5,885.5C 1993.9,825.288 2013.9,765.288 2034.5,705.5 Z M 2044.5,730.5 C 2045.5,730.414 2046.33,730.748 2047,731.5C 2055.73,759.864 2064.57,788.198 2073.5,816.5C 2055.17,817.833 2036.83,817.833 2018.5,816.5C 2027.78,787.996 2036.45,759.329 2044.5,730.5 Z"/></g>
<g><path style="opacity:1" fill="#000001" d="M 2136.5,705.5 C 2144.17,705.5 2151.83,705.5 2159.5,705.5C 2159.67,713.507 2159.5,721.507 2159,729.5C 2151.59,730.481 2144.09,730.814 2136.5,730.5C 2136.5,722.167 2136.5,713.833 2136.5,705.5 Z"/></g>
<g><path style="opacity:1" fill="#000002" d="M 2261.5,705.5 C 2268.83,705.5 2276.17,705.5 2283.5,705.5C 2283.5,765.833 2283.5,826.167 2283.5,886.5C 2276.17,886.5 2268.83,886.5 2261.5,886.5C 2261.5,826.167 2261.5,765.833 2261.5,705.5 Z"/></g>
<g><path style="opacity:1" fill="#000002" d="M 2308.5,705.5 C 2315.83,705.5 2323.17,705.5 2330.5,705.5C 2330.67,713.507 2330.5,721.507 2330,729.5C 2323,730.833 2316,730.833 2309,729.5C 2308.5,721.507 2308.33,713.507 2308.5,705.5 Z"/></g>
<g><path style="opacity:1" fill="#000001" d="M 828.5,753.5 C 846.406,753.204 860.573,760.204 871,774.5C 873.577,779.887 875.077,785.554 875.5,791.5C 866.833,791.5 858.167,791.5 849.5,791.5C 849.411,773.902 840.744,766.069 823.5,768C 815.318,770.336 809.818,775.503 807,783.5C 801.394,802.726 801.06,822.059 806,841.5C 812.925,862.238 827.425,873.238 849.5,874.5C 857.341,873.954 865.008,872.62 872.5,870.5C 872.5,875.5 872.5,880.5 872.5,885.5C 852.448,890.976 832.448,890.809 812.5,885C 805.447,882.27 799.947,877.77 796,871.5C 789.458,866.771 785.124,860.438 783,852.5C 779.351,841.291 777.851,829.791 778.5,818C 775.583,790.154 786.249,769.821 810.5,757C 816.556,755.374 822.556,754.208 828.5,753.5 Z"/></g>
<g><path style="opacity:1" fill="#000001" d="M 932.5,753.5 C 948.082,751.963 960.915,756.963 971,768.5C 974.108,773.389 976.108,778.722 977,784.5C 977.5,818.832 977.667,853.165 977.5,887.5C 970.833,887.5 964.167,887.5 957.5,887.5C 957.666,881.491 957.499,875.491 957,869.5C 951.333,880.15 942.5,886.65 930.5,889C 900.676,892.504 886.176,879.338 887,849.5C 888.581,840.506 893.081,833.339 900.5,828C 906.662,823.92 913.329,820.92 920.5,819C 932.371,815.805 944.371,813.305 956.5,811.5C 958.451,799.17 957.285,787.17 953,775.5C 948.898,769.617 943.231,766.95 936,767.5C 926.524,766.235 919.858,769.901 916,778.5C 914.95,782.803 914.116,787.137 913.5,791.5C 905.5,791.5 897.5,791.5 889.5,791.5C 890.3,774.885 898.3,763.385 913.5,757C 919.884,755.326 926.218,754.16 932.5,753.5 Z M 946.5,827.5 C 950.167,827.5 953.833,827.5 957.5,827.5C 958.716,838.736 956.883,849.403 952,859.5C 944.556,870.307 934.39,874.64 921.5,872.5C 910.011,866.848 906.178,857.848 910,845.5C 913.458,839.837 918.292,835.671 924.5,833C 931.885,830.829 939.218,828.996 946.5,827.5 Z"/></g>
<g><path style="opacity:1" fill="#000001" d="M 1065.5,753.5 C 1072.67,753.527 1079.33,755.361 1085.5,759C 1088.34,762.672 1091.34,766.172 1094.5,769.5C 1095.94,772.05 1097.11,774.716 1098,777.5C 1099.47,814.118 1099.97,850.785 1099.5,887.5C 1092.17,887.5 1084.83,887.5 1077.5,887.5C 1077.67,854.832 1077.5,822.165 1077,789.5C 1076.7,778.699 1071.2,773.032 1060.5,772.5C 1049.26,773.868 1040.43,779.201 1034,788.5C 1027.9,799.003 1024.56,810.336 1024,822.5C 1023.5,844.164 1023.33,865.831 1023.5,887.5C 1016.5,887.5 1009.5,887.5 1002.5,887.5C 1002.33,844.165 1002.5,800.832 1003,757.5C 1009.33,756.167 1015.67,756.167 1022,757.5C 1022.33,766.833 1022.67,776.167 1023,785.5C 1032.03,767.611 1046.2,756.944 1065.5,753.5 Z"/></g>
<g><path style="opacity:1" fill="#000002" d="M 1314.5,757.5 C 1314.33,767.172 1314.5,776.839 1315,786.5C 1315.72,785.956 1316.22,785.289 1316.5,784.5C 1323.12,771.379 1333.12,761.879 1346.5,756C 1357.62,752.41 1368.28,753.41 1378.5,759C 1384.77,764.938 1388.94,772.105 1391,780.5C 1391.5,816.165 1391.67,851.832 1391.5,887.5C 1384.17,887.5 1376.83,887.5 1369.5,887.5C 1369.67,854.498 1369.5,821.498 1369,788.5C 1368.42,778.925 1363.42,773.592 1354,772.5C 1343.12,773.719 1334.46,778.719 1328,787.5C 1321.24,799.289 1317.24,811.956 1316,825.5C 1315.5,846.164 1315.33,866.831 1315.5,887.5C 1308.5,887.5 1301.5,887.5 1294.5,887.5C 1294.33,844.165 1294.5,800.832 1295,757.5C 1301.6,756.174 1308.1,756.174 1314.5,757.5 Z"/></g>
<g><path style="opacity:1" fill="#000001" d="M 1454.5,753.5 C 1464.08,753.537 1473.42,755.037 1482.5,758C 1496.74,766.331 1503.24,778.831 1502,795.5C 1502.5,825.832 1502.67,856.165 1502.5,886.5C 1495.17,886.5 1487.83,886.5 1480.5,886.5C 1480.67,880.824 1480.5,875.157 1480,869.5C 1476.41,877.421 1470.58,882.921 1462.5,886C 1448.29,891.425 1434.62,890.425 1421.5,883C 1409.08,869.898 1406.58,855.065 1414,838.5C 1419.96,829.602 1428.13,823.768 1438.5,821C 1451.79,816.127 1465.45,812.96 1479.5,811.5C 1480.98,800.738 1480.48,790.072 1478,779.5C 1475.81,772.983 1471.31,769.15 1464.5,768C 1447.23,765.426 1438.23,772.926 1437.5,790.5C 1429.19,791.498 1420.86,791.831 1412.5,791.5C 1413.65,774.672 1421.98,763.172 1437.5,757C 1443.23,755.432 1448.9,754.265 1454.5,753.5 Z M 1468.5,827.5 C 1472.5,827.5 1476.5,827.5 1480.5,827.5C 1481.79,838.757 1479.95,849.424 1475,859.5C 1467.58,869.463 1457.75,873.796 1445.5,872.5C 1433.95,866.364 1430.45,857.03 1435,844.5C 1437.5,840.667 1440.67,837.5 1444.5,835C 1452.27,831.351 1460.27,828.851 1468.5,827.5 Z"/></g>
<g><path style="opacity:1" fill="#000001" d="M 1721.5,753.5 C 1732.28,753.342 1742.61,755.342 1752.5,759.5C 1762.5,767.835 1768,778.501 1769,791.5C 1769.5,823.165 1769.67,854.832 1769.5,886.5C 1762.17,886.5 1754.83,886.5 1747.5,886.5C 1747.67,880.824 1747.5,875.157 1747,869.5C 1734.32,887.839 1717.15,893.672 1695.5,887C 1685.61,881.738 1679.45,873.571 1677,862.5C 1674.8,842.741 1682.96,829.241 1701.5,822C 1716.06,816.573 1731.06,813.073 1746.5,811.5C 1747.51,801.109 1747.01,790.776 1745,780.5C 1741.27,771.783 1734.6,767.45 1725,767.5C 1709.82,768.208 1702.99,776.208 1704.5,791.5C 1696.14,791.831 1687.81,791.498 1679.5,790.5C 1683.6,766.73 1697.6,754.396 1721.5,753.5 Z M 1735.5,827.5 C 1739.5,827.5 1743.5,827.5 1747.5,827.5C 1748.12,837.855 1746.62,847.855 1743,857.5C 1737.08,866.249 1728.91,871.582 1718.5,873.5C 1702.42,871.34 1696.25,862.34 1700,846.5C 1702.08,842.421 1704.91,838.921 1708.5,836C 1717.27,832.018 1726.27,829.185 1735.5,827.5 Z"/></g>
<g><path style="opacity:1" fill="#000001" d="M 1854.5,753.5 C 1865.98,753.661 1875.48,757.994 1883,766.5C 1884.94,770.048 1886.61,773.714 1888,777.5C 1889.47,814.126 1889.97,850.793 1889.5,887.5C 1881.83,887.5 1874.17,887.5 1866.5,887.5C 1866.95,853.135 1866.45,818.802 1865,784.5C 1862.68,777.169 1857.68,773.169 1850,772.5C 1839.09,773.789 1830.76,779.122 1825,788.5C 1818.15,798.37 1814.49,809.37 1814,821.5C 1813.5,843.497 1813.33,865.497 1813.5,887.5C 1806.17,887.5 1798.83,887.5 1791.5,887.5C 1791.5,843.833 1791.5,800.167 1791.5,756.5C 1798.5,756.5 1805.5,756.5 1812.5,756.5C 1812.33,766.172 1812.5,775.839 1813,785.5C 1818.85,775.48 1826.35,766.813 1835.5,759.5C 1841.62,756.395 1847.95,754.395 1854.5,753.5 Z"/></g>
<g><path style="opacity:1" fill="#000001" d="M 2243.5,753.5 C 2244.5,753.5 2245.5,753.5 2246.5,753.5C 2246.5,762.167 2246.5,770.833 2246.5,779.5C 2228.2,777.721 2215.37,785.054 2208,801.5C 2207.12,804.789 2206.45,808.123 2206,811.5C 2205.5,836.498 2205.33,861.498 2205.5,886.5C 2198.17,886.5 2190.83,886.5 2183.5,886.5C 2183.33,843.499 2183.5,800.499 2184,757.5C 2191,756.167 2198,756.167 2205,757.5C 2205.33,765.833 2205.67,774.167 2206,782.5C 2208,779.167 2210,775.833 2212,772.5C 2217.78,768.717 2222.95,764.217 2227.5,759C 2232.72,756.429 2238.05,754.596 2243.5,753.5 Z"/></g>
<g><path style="opacity:1" fill="#000001" d="M 2418.5,753.5 C 2426.29,753.52 2433.62,755.354 2440.5,759C 2442.63,762.13 2445.13,764.963 2448,767.5C 2449.61,770.382 2450.94,773.382 2452,776.5C 2453.47,813.118 2453.97,849.785 2453.5,886.5C 2446.17,886.5 2438.83,886.5 2431.5,886.5C 2431.67,854.165 2431.5,821.832 2431,789.5C 2428.86,774.333 2420.36,769.167 2405.5,774C 2399.44,777.059 2394.27,781.226 2390,786.5C 2383.29,796.89 2379.29,808.223 2378,820.5C 2377.5,842.497 2377.33,864.497 2377.5,886.5C 2370.5,886.5 2363.5,886.5 2356.5,886.5C 2356.33,843.499 2356.5,800.499 2357,757.5C 2363.33,756.167 2369.67,756.167 2376,757.5C 2376.33,766.833 2376.67,776.167 2377,785.5C 2382.85,775.48 2390.35,766.813 2399.5,759.5C 2405.62,756.395 2411.95,754.395 2418.5,753.5 Z"/></g>
<g><path style="opacity:1" fill="#000001" d="M 2517.5,753.5 C 2554.04,751.537 2572.2,768.87 2572,805.5C 2547.57,806.494 2523.07,806.828 2498.5,806.5C 2497.28,824.055 2500.45,840.721 2508,856.5C 2514.74,865.456 2523.57,871.289 2534.5,874C 2546.48,875.665 2557.98,874.165 2569,869.5C 2570.11,871.97 2570.61,874.636 2570.5,877.5C 2570.17,879.833 2569.83,882.167 2569.5,884.5C 2563.41,886.951 2557.08,888.451 2550.5,889C 2531.85,892.07 2514.52,888.737 2498.5,879C 2497.15,875.805 2494.82,873.972 2491.5,873.5C 2491.65,872.448 2491.48,871.448 2491,870.5C 2483.46,863.444 2478.46,854.777 2476,844.5C 2473.09,827.895 2472.75,811.229 2475,794.5C 2476.56,785.21 2480.4,777.043 2486.5,770C 2490.87,766.489 2495.21,762.989 2499.5,759.5C 2505.31,756.556 2511.31,754.556 2517.5,753.5 Z M 2520.5,766.5 C 2538.52,765.856 2547.85,774.522 2548.5,792.5C 2532.17,792.5 2515.83,792.5 2499.5,792.5C 2499.95,778.395 2506.95,769.729 2520.5,766.5 Z"/></g>
<g><path style="opacity:1" fill="#000001" d="M 2622.5,753.5 C 2636.41,752.596 2649.74,754.929 2662.5,760.5C 2663.46,766.773 2663.79,773.107 2663.5,779.5C 2657.42,777.295 2651.42,774.795 2645.5,772C 2634.49,768.079 2623.82,768.745 2613.5,774C 2608.84,779.451 2608.34,785.284 2612,791.5C 2614.17,793.667 2616.33,795.833 2618.5,798C 2637.17,806.011 2653.34,817.511 2667,832.5C 2675.52,852.891 2671.02,869.724 2653.5,883C 2640.14,889.145 2626.14,891.145 2611.5,889C 2603.21,887.761 2595.21,885.594 2587.5,882.5C 2587.17,875.468 2587.5,868.468 2588.5,861.5C 2599.74,867.975 2611.74,872.308 2624.5,874.5C 2631.4,874.039 2637.74,871.873 2643.5,868C 2652.69,856.232 2651.03,846.232 2638.5,838C 2626.53,831.348 2614.53,824.681 2602.5,818C 2587.19,803.712 2584.36,787.212 2594,768.5C 2601.58,759.81 2611.08,754.81 2622.5,753.5 Z"/></g>
<g><path style="opacity:1" fill="#f9fcfd" d="M 258.5,754.5 C 270.441,753.951 282.108,755.451 293.5,759C 296.59,760.874 299.257,763.207 301.5,766C 301.122,769.815 299.955,773.315 298,776.5C 286.639,767.742 274.639,766.409 262,772.5C 258.646,777.666 257.646,783.332 259,789.5C 263.158,808.12 266.992,826.787 270.5,845.5C 267.996,868.694 255.33,882.527 232.5,887C 212.605,890.517 193.605,887.85 175.5,879C 166.69,872.307 166.19,865.14 174,857.5C 184.265,867.129 196.265,873.129 210,875.5C 224.635,872.93 230.302,864.263 227,849.5C 222.611,831.112 218.778,812.612 215.5,794C 217.039,778.424 224.706,766.924 238.5,759.5C 245.132,757.182 251.798,755.516 258.5,754.5 Z"/></g>
<g><path style="opacity:1" fill="#f9fcfd" d="M 520.5,767.5 C 518.824,768.183 518.157,769.517 518.5,771.5C 518.205,773.423 517.372,775.09 516,776.5C 506.928,769.69 496.761,767.19 485.5,769C 481.734,770.769 478.567,773.269 476,776.5C 474.675,780.428 474.342,784.428 475,788.5C 480.995,807.13 485.495,826.13 488.5,845.5C 487.263,862.827 478.929,875.327 463.5,883C 439.904,891.374 416.904,890.041 394.5,879C 388.363,873.724 386.863,867.224 390,859.5C 391,858.833 392,858.167 393,857.5C 404.485,869.757 418.318,875.257 434.5,874C 444.372,868.752 447.872,860.586 445,849.5C 440.611,831.112 436.778,812.612 433.5,794C 435.822,775.007 446.155,762.674 464.5,757C 480.352,753.325 496.018,753.991 511.5,759C 513.993,761.08 516.659,762.914 519.5,764.5C 520.386,765.325 520.719,766.325 520.5,767.5 Z"/></g>
<g><path style="opacity:1" fill="#000001" d="M 1247.5,756.5 C 1254.83,756.5 1262.17,756.5 1269.5,756.5C 1269.5,800.167 1269.5,843.833 1269.5,887.5C 1262.17,887.5 1254.83,887.5 1247.5,887.5C 1247.5,843.833 1247.5,800.167 1247.5,756.5 Z"/></g>
<g><path style="opacity:1" fill="#000001" d="M 1508.5,756.5 C 1516.09,756.186 1523.59,756.519 1531,757.5C 1534.01,767.819 1538.35,777.486 1544,786.5C 1551.74,809.375 1560.07,832.042 1569,854.5C 1579.41,822.279 1590.41,790.279 1602,758.5C 1602.5,758 1603,757.5 1603.5,757C 1610.16,756.5 1616.83,756.334 1623.5,756.5C 1623.58,759.271 1623.08,761.937 1622,764.5C 1607.34,805.162 1592.67,845.829 1578,886.5C 1571.59,887.478 1565.09,887.811 1558.5,887.5C 1550.91,863.336 1541.41,840.003 1530,817.5C 1523.6,798.639 1516.6,779.972 1509,761.5C 1508.51,759.866 1508.34,758.199 1508.5,756.5 Z"/></g>
<g><path style="opacity:1" fill="#000002" d="M 1635.5,756.5 C 1642.75,756.187 1649.92,756.52 1657,757.5C 1657.5,800.832 1657.67,844.165 1657.5,887.5C 1650.17,887.5 1642.83,887.5 1635.5,887.5C 1635.5,843.833 1635.5,800.167 1635.5,756.5 Z"/></g>
<g><path style="opacity:1" fill="#000001" d="M 2137.5,756.5 C 2144.75,756.187 2151.92,756.52 2159,757.5C 2159.5,800.499 2159.67,843.499 2159.5,886.5C 2151.83,886.5 2144.17,886.5 2136.5,886.5C 2136.17,843.094 2136.51,799.761 2137.5,756.5 Z"/></g>
<g><path style="opacity:1" fill="#000002" d="M 2309.5,756.5 C 2316.5,756.5 2323.5,756.5 2330.5,756.5C 2330.5,799.833 2330.5,843.167 2330.5,886.5C 2323.17,886.5 2315.83,886.5 2308.5,886.5C 2308.17,843.094 2308.51,799.761 2309.5,756.5 Z"/></g>
<g><path style="opacity:1" fill="#f8fcfd" d="M 362.5,757.5 C 375.171,757.333 387.838,757.5 400.5,758C 401.059,758.725 401.392,759.558 401.5,760.5C 394.166,802.338 385.999,844.004 377,885.5C 362.241,886.657 347.408,886.823 332.5,886C 331.941,885.275 331.608,884.442 331.5,883.5C 333.76,872.535 335.76,861.535 337.5,850.5C 325.482,850.168 313.482,850.501 301.5,851.5C 292.394,862.271 284.061,873.605 276.5,885.5C 271.9,886.443 267.233,886.777 262.5,886.5C 262.343,885.127 262.51,883.793 263,882.5C 278.145,861.21 294.478,840.877 312,821.5C 328.047,799.316 344.88,777.983 362.5,757.5 Z"/></g>
<g><path style="opacity:1" fill="#040f2a" d="M 1314.5,757.5 C 1315.17,766.5 1315.83,775.5 1316.5,784.5C 1316.22,785.289 1315.72,785.956 1315,786.5C 1314.5,776.839 1314.33,767.172 1314.5,757.5 Z"/></g>
<g><path style="opacity:1" fill="#5e77b4" d="M 520.5,767.5 C 520.843,769.483 520.176,770.817 518.5,771.5C 518.157,769.517 518.824,768.183 520.5,767.5 Z"/></g>
<g><path style="opacity:1" fill="#153a92" d="M 347.5,791.5 C 346.012,807.051 343.512,822.717 340,838.5C 330.911,839.65 321.745,839.817 312.5,839C 321.838,829.828 329.338,819.328 335,807.5C 339.417,802.318 343.583,796.984 347.5,791.5 Z"/></g>
</svg>
